<?xml version="1.0" encoding="UTF-8" standalone="no"?>
<!-- Created with Inkscape (http://www.inkscape.org/) -->

<svg
   xmlns:dc="http://purl.org/dc/elements/1.1/"
   xmlns:cc="http://creativecommons.org/ns#"
   xmlns:rdf="http://www.w3.org/1999/02/22-rdf-syntax-ns#"
   xmlns:svg="http://www.w3.org/2000/svg"
   xmlns="http://www.w3.org/2000/svg"
   xmlns:sodipodi="http://sodipodi.sourceforge.net/DTD/sodipodi-0.dtd"
   xmlns:inkscape="http://www.inkscape.org/namespaces/inkscape"
   width="48"
   height="48"
   viewBox="0 0 12.7 12.7"
   version="1.1"
   id="svg827"
   inkscape:version="0.92.3 (2405546, 2018-03-11)"
   sodipodi:docname="ampl.svg">
  <defs
     id="defs821" />
  <sodipodi:namedview
     id="base"
     pagecolor="#ffffff"
     bordercolor="#666666"
     borderopacity="1.0"
     inkscape:pageopacity="0.0"
     inkscape:pageshadow="2"
     inkscape:zoom="15.839192"
     inkscape:cx="23.51659"
     inkscape:cy="23.258909"
     inkscape:document-units="mm"
     inkscape:current-layer="text849"
     showgrid="false"
     units="px"
     inkscape:window-width="1920"
     inkscape:window-height="1057"
     inkscape:window-x="-8"
     inkscape:window-y="-8"
     inkscape:window-maximized="1"
     inkscape:pagecheckerboard="true" />
  <metadata
     id="metadata824">
    <rdf:RDF>
      <cc:Work
         rdf:about="">
        <dc:format>image/svg+xml</dc:format>
        <dc:type
           rdf:resource="http://purl.org/dc/dcmitype/StillImage" />
        <dc:title />
      </cc:Work>
    </rdf:RDF>
  </metadata>
  <g
     inkscape:label="Capa 1"
     inkscape:groupmode="layer"
     id="layer1"
     transform="translate(0,-284.3)" />
  <g
     inkscape:groupmode="layer"
     id="layer2"
     inkscape:label="Capa 2">
    <rect
       style="opacity:1;fill:none;fill-opacity:1;stroke:#000000;stroke-width:0.28099999;stroke-miterlimit:4;stroke-dasharray:none;stroke-dashoffset:0;stroke-opacity:1"
       id="rect1372"
       width="11.1755"
       height="11.1755"
       x="0.76225007"
       y="0.76225585" />
    <g
       aria-label="Micrófono"
       style="font-style:normal;font-weight:normal;font-size:2.11666656px;line-height:1.25;font-family:sans-serif;letter-spacing:0px;word-spacing:0px;fill:#000000;fill-opacity:1;stroke:none;stroke-width:0.26458332"
       id="text1080">
      <g
         aria-label="f(kn)"
         style="font-style:normal;font-weight:normal;font-size:3.22482324px;line-height:1.25;font-family:sans-serif;letter-spacing:0px;word-spacing:0px;fill:#000000;fill-opacity:1;stroke:none;stroke-width:0.05817507"
         id="text845">
        <g
           id="g837"
           transform="translate(-0.02587303)">
          <path
             inkscape:connector-curvature="0"
             id="path914"
             style="stroke-width:0.05817507"
             d="m 5.9803407,4.0555054 v 0.240917 H 5.7032074 q -0.1558874,0 -0.2172976,0.062985 -0.059836,0.062985 -0.059836,0.2267454 V 4.74204 H 5.9031843 V 4.9672108 H 5.4260742 V 6.5056152 H 5.1347694 V 4.9672108 H 4.8576361 V 4.74204 H 5.1347694 V 4.6192196 q 0,-0.2944541 0.136992,-0.4282968 0.136992,-0.1354174 0.4345953,-0.1354174 z" />
          <path
             inkscape:connector-curvature="0"
             id="path916"
             style="stroke-width:0.05817507"
             d="M 6.9172401,4.0586546 Q 6.7062409,4.4208174 6.6038905,4.7751071 6.5015402,5.1293967 6.5015402,5.4931341 q 0,0.3637374 0.1023503,0.7211763 0.103925,0.3558643 0.3133496,0.7164524 H 6.6653007 Q 6.4291076,6.560727 6.3110111,6.2032881 6.1944891,5.8458492 6.1944891,5.4931341 q 0,-0.3511404 0.116522,-0.7070047 Q 6.427533,4.4302651 6.6653007,4.0586546 Z" />
          <path
             inkscape:connector-curvature="0"
             id="path918"
             style="stroke-width:0.05817507"
             d="M 2.7927153,3.9719837 H 3.0840201 V 5.4190601 L 3.9484869,4.6585183 H 4.3185227 L 3.383198,5.4836196 4.3578883,6.4220935 H 3.9799793 L 3.0840201,5.560776 V 6.4220935 H 2.7927153 Z" />
          <path
             id="path920"
             style="stroke-width:0.05817507"
             d="M 8.7009087,5.4411716 V 6.5056152 H 8.4111785 V 5.4506194 q 0,-0.2503647 -0.097627,-0.3747598 -0.097626,-0.124395 -0.2928794,-0.124395 -0.2346185,0 -0.3700359,0.149589 Q 7.5152193,5.2506425 7.5152193,5.5088803 V 6.5056152 H 7.2239145 V 4.74204 h 0.2913048 v 0.273984 q 0.103925,-0.1590367 0.2440662,-0.2377677 0.1417159,-0.078731 0.3259465,-0.078731 0.3039018,0 0.4597893,0.1889545 0.1558874,0.1873798 0.1558874,0.5526918 z"
             inkscape:connector-curvature="0" />
          <path
             id="path922"
             style="stroke-width:0.05817507"
             d="m 9.2362799,4.0586546 h 0.2519393 q 0.2361931,0.3716105 0.3527151,0.7274748 0.1180965,0.3558643 0.1180965,0.7070047 0,0.3527151 -0.1180965,0.710154 Q 9.7244123,6.560727 9.4882192,6.9307628 H 9.2362799 q 0.2094246,-0.3605881 0.3117749,-0.7164524 0.103925,-0.3574389 0.103925,-0.7211763 0,-0.3637374 -0.103925,-0.718027 Q 9.4457045,4.4208174 9.2362799,4.0586546 Z"
             inkscape:connector-curvature="0" />
        </g>
      </g>
      <g
         aria-label="ampliación"
         style="font-style:normal;font-weight:normal;font-size:1.3605088px;line-height:1.25;font-family:sans-serif;letter-spacing:0px;word-spacing:0px;fill:#000000;fill-opacity:1;stroke:none;stroke-width:0.02454327"
         id="text849">
        <path
           d="m 3.1164665,10.494869 q -0.1481413,0 -0.205272,0.03388 -0.057131,0.03388 -0.057131,0.11559 0,0.0651 0.042516,0.103633 0.04318,0.03787 0.1169187,0.03787 0.1016396,0 0.1627562,-0.07175 0.061781,-0.07241 0.061781,-0.191986 v -0.02724 z m 0.2438022,-0.05049 v 0.424494 H 3.2380354 v -0.112932 q -0.041852,0.06776 -0.1042968,0.100311 -0.062445,0.03189 -0.1527915,0.03189 -0.1142615,0 -0.1820212,-0.06377 -0.067095,-0.06444 -0.067095,-0.172057 0,-0.125555 0.083703,-0.189329 0.084367,-0.06377 0.2511095,-0.06377 h 0.1713922 v -0.01196 q 0,-0.08437 -0.055802,-0.130205 -0.055138,-0.0465 -0.1554487,-0.0465 -0.063774,0 -0.1242262,0.01528 -0.060452,0.01528 -0.1162544,0.04584 v -0.112933 q 0.067095,-0.02591 0.1302049,-0.03853 0.06311,-0.01329 0.1228976,-0.01329 0.1614275,0 0.2411448,0.0837 0.079717,0.0837 0.079717,0.253767 z"
           style="stroke-width:0.02454327"
           id="path893"
           inkscape:connector-curvature="0" />
        <path
           d="m 4.191986,10.267675 q 0.045837,-0.08237 0.1096113,-0.121569 0.063774,-0.03919 0.1501342,-0.03919 0.1162544,0 0.179364,0.08171 0.06311,0.08105 0.06311,0.23118 v 0.449074 h -0.122898 v -0.445088 q 0,-0.106954 -0.037866,-0.15877 -0.037866,-0.05182 -0.1155901,-0.05182 -0.094996,0 -0.1501343,0.06311 -0.055138,0.06311 -0.055138,0.172057 v 0.420508 h -0.122897 v -0.445088 q 0,-0.107618 -0.037866,-0.15877 -0.037866,-0.05182 -0.1169187,-0.05182 -0.093668,0 -0.1488056,0.06377 -0.055138,0.06311 -0.055138,0.171393 V 10.86887 H 3.6080566 v -0.744028 h 0.1228976 v 0.11559 q 0.041852,-0.06842 0.1003109,-0.100975 0.058459,-0.03255 0.138841,-0.03255 0.081046,0 0.1375124,0.04119 0.057131,0.04119 0.084367,0.119576 z"
           style="stroke-width:0.02454327"
           id="path895"
           inkscape:connector-curvature="0" />
        <path
           d="m 5.056919,10.757272 v 0.394601 H 4.9340214 V 10.124848 H 5.056919 v 0.112933 q 0.03853,-0.06643 0.096989,-0.09832 0.059124,-0.03255 0.1408339,-0.03255 0.1355194,0 0.2198869,0.107618 0.085032,0.107619 0.085032,0.282997 0,0.175378 -0.085032,0.282996 -0.084367,0.107618 -0.2198869,0.107618 -0.08171,0 -0.1408339,-0.03189 Q 5.095449,10.8237 5.056919,10.75727 Z m 0.4158586,-0.259745 q 0,-0.134855 -0.055802,-0.211251 -0.055138,-0.07706 -0.1521272,-0.07706 -0.096989,0 -0.1527915,0.07706 -0.055138,0.0764 -0.055138,0.211251 0,0.134855 0.055138,0.211915 0.055802,0.0764 0.1527915,0.0764 0.096989,0 0.1521272,-0.0764 0.055802,-0.07706 0.055802,-0.211915 z"
           style="stroke-width:0.02454327"
           id="path897"
           inkscape:connector-curvature="0" />
        <path
           d="M 5.8022757,9.8352086 H 5.9245089 V 10.868876 H 5.8022757 Z"
           style="stroke-width:0.02454327"
           id="path899"
           inkscape:connector-curvature="0" />
        <path
           d="m 6.1796043,10.124848 h 0.1222332 v 0.744028 H 6.1796043 Z m 0,-0.2896394 H 6.3018375 V 9.9899931 H 6.1796043 Z"
           style="stroke-width:0.02454327"
           id="path901"
           inkscape:connector-curvature="0" />
        <path
           d="m 6.8950672,10.494869 q -0.1481413,0 -0.2052721,0.03388 -0.057131,0.03388 -0.057131,0.11559 0,0.0651 0.042516,0.103633 0.04318,0.03787 0.1169187,0.03787 0.1016396,0 0.1627562,-0.07175 0.061781,-0.07241 0.061781,-0.191986 v -0.02724 z m 0.2438021,-0.05049 v 0.424494 H 7.0166361 v -0.112932 q -0.041852,0.06776 -0.1042968,0.100311 -0.062445,0.03189 -0.1527915,0.03189 -0.1142615,0 -0.1820212,-0.06377 -0.067095,-0.06444 -0.067095,-0.172057 0,-0.125555 0.083703,-0.189329 0.084367,-0.06377 0.2511095,-0.06377 h 0.1713922 v -0.01196 q 0,-0.08437 -0.055802,-0.130205 -0.055138,-0.0465 -0.1554487,-0.0465 -0.063774,0 -0.1242262,0.01528 -0.060452,0.01528 -0.1162544,0.04584 v -0.112933 q 0.067095,-0.02591 0.1302049,-0.03853 0.06311,-0.01329 0.1228976,-0.01329 0.1614275,0 0.2411448,0.0837 0.079717,0.0837 0.079717,0.253767 z"
           style="stroke-width:0.02454327"
           id="path903"
           inkscape:connector-curvature="0" />
        <path
           d="m 7.926742,10.153414 v 0.114261 q -0.051816,-0.02857 -0.1042968,-0.04252 -0.051816,-0.01461 -0.1049611,-0.01461 -0.1189117,0 -0.1846785,0.07573 -0.065767,0.07507 -0.065767,0.211251 0,0.136183 0.065767,0.211915 0.065767,0.07507 0.1846785,0.07507 0.053145,0 0.1049611,-0.01395 0.052481,-0.01461 0.1042968,-0.04318 v 0.112933 q -0.051152,0.02392 -0.1062897,0.03587 -0.054474,0.01196 -0.1162545,0.01196 -0.1680706,0 -0.267053,-0.105625 -0.098982,-0.105625 -0.098982,-0.284989 0,-0.182022 0.099647,-0.286318 0.1003109,-0.104297 0.2743604,-0.104297 0.056466,0 0.1102756,0.01196 0.053809,0.01129 0.1042968,0.03454 z"
           style="stroke-width:0.02454327"
           id="path905"
           inkscape:connector-curvature="0" />
        <path
           d="m 8.1406503,10.124848 h 0.1222332 v 0.744028 H 8.1406503 Z m 0,-0.2896394 H 8.2628835 V 9.9899931 H 8.1406503 Z"
           style="stroke-width:0.02454327"
           id="path907"
           inkscape:connector-curvature="0" />
        <path
           d="m 8.8062897,10.210544 q -0.098318,0 -0.1554488,0.07706 -0.057131,0.0764 -0.057131,0.209923 0,0.133526 0.056466,0.210586 0.057131,0.0764 0.1561131,0.0764 0.097654,0 0.1547844,-0.07706 0.057131,-0.07706 0.057131,-0.209922 0,-0.132198 -0.057131,-0.209258 -0.057131,-0.07772 -0.1547844,-0.07772 z m 0,-0.103632 q 0.1594346,0 0.2504452,0.103632 0.091011,0.103633 0.091011,0.286983 0,0.182685 -0.091011,0.286982 -0.091011,0.103632 -0.2504452,0.103632 -0.160099,0 -0.2511096,-0.103632 -0.090346,-0.104297 -0.090346,-0.286982 0,-0.18335 0.090346,-0.286983 0.091011,-0.103632 0.2511096,-0.103632 z M 8.8986289,9.7807351 H 9.0308267 L 8.8142614,10.030516 H 8.7126218 Z"
           style="stroke-width:0.02454327"
           id="path909"
           inkscape:connector-curvature="0" />
        <path
           d="m 9.9681697,10.419802 v 0.449074 H 9.8459365 v -0.445088 q 0,-0.105625 -0.041187,-0.158106 -0.041187,-0.05248 -0.1235618,-0.05248 -0.098982,0 -0.1561131,0.06311 -0.057131,0.06311 -0.057131,0.172057 v 0.420508 H 9.345046 v -0.744028 h 0.1228975 v 0.11559 q 0.043845,-0.0671 0.1029682,-0.100311 0.059788,-0.03322 0.1375124,-0.03322 0.128212,0 0.1939788,0.07972 0.065767,0.07905 0.065767,0.233173 z"
           style="stroke-width:0.02454327"
           id="path911"
           inkscape:connector-curvature="0" />
        <path
           inkscape:connector-curvature="0"
           id="path839"
           style="stroke-width:0.02454327"
           d="M 5.8022757,9.8352086 H 5.9245089 V 10.868876 H 5.8022757 Z" />
      </g>
    </g>
  </g>
</svg>
