<?xml version="1.0" encoding="UTF-8" standalone="no"?>
<!-- Created with Inkscape (http://www.inkscape.org/) -->

<svg
   xmlns:dc="http://purl.org/dc/elements/1.1/"
   xmlns:cc="http://creativecommons.org/ns#"
   xmlns:rdf="http://www.w3.org/1999/02/22-rdf-syntax-ns#"
   xmlns:svg="http://www.w3.org/2000/svg"
   xmlns="http://www.w3.org/2000/svg"
   xmlns:sodipodi="http://sodipodi.sourceforge.net/DTD/sodipodi-0.dtd"
   xmlns:inkscape="http://www.inkscape.org/namespaces/inkscape"
   width="1024"
   height="567"
   viewBox="0 0 270.93333 150.01876"
   version="1.1"
   id="svg8"
   inkscape:version="0.92.3 (2405546, 2018-03-11)"
   sodipodi:docname="BG.svg">
  <defs
     id="defs2" />
  <sodipodi:namedview
     id="base"
     pagecolor="#ffffff"
     bordercolor="#666666"
     borderopacity="1.0"
     inkscape:pageopacity="0.0"
     inkscape:pageshadow="2"
     inkscape:zoom="0.7"
     inkscape:cx="373.23191"
     inkscape:cy="354.3457"
     inkscape:document-units="px"
     inkscape:current-layer="layer1"
     showgrid="false"
     units="px"
     inkscape:window-width="1920"
     inkscape:window-height="1057"
     inkscape:window-x="-8"
     inkscape:window-y="-8"
     inkscape:window-maximized="1" />
  <metadata
     id="metadata5">
    <rdf:RDF>
      <cc:Work
         rdf:about="">
        <dc:format>image/svg+xml</dc:format>
        <dc:type
           rdf:resource="http://purl.org/dc/dcmitype/StillImage" />
        <dc:title />
      </cc:Work>
    </rdf:RDF>
  </metadata>
  <g
     inkscape:label="Capa 1"
     inkscape:groupmode="layer"
     id="layer1"
     transform="translate(0,-146.98124)">
    <g
       id="g842"
       transform="matrix(0.89083416,0,0,0.63532685,16.563259,97.881006)"
       style="opacity:0.5">
      <path
         inkscape:connector-curvature="0"
         d="m 50.210782,113.81306 c -8.296802,4.16649 -15.247726,6.54548 -21.050838,14.66046 -3.133978,4.3825 -4.377248,9.84677 -6.629602,14.74116 -2.509287,5.45271 -5.462535,10.7114 -7.654838,16.29909 -3.826539,9.75301 -7.2679093,23.93223 -9.946047,34.07016 -1.4056273,4.87771 -3.185047,9.6629 -4.21688194,14.63312 -0.80284236,3.8672 -1.47301658,7.83679 -1.26678588,11.78105 0.21532219,4.11815 2.47928272,12.95516 6.58179182,15.89581 2.0876496,1.49641 4.806792,2.14701 7.373772,2.23724 1.180081,0.0415 2.004792,-1.24822 3.007188,-1.87233 -10.9373258,1.15935 -21.8746521,2.31871 -32.811978,3.47806 -0.390286,1.32675 -1.245085,5.36122 -1.170857,3.98025 0.240718,-4.47838 2.949679,-12.39133 6.222703,-15.04635 2.0902663,-1.69558 5.235645,-1.29671 7.9033787,-1.65366 4.9331107,-0.66008 9.9107363,-0.92868 14.8661043,-1.39303 10.939698,-13.0096 22.829447,-25.17096 34.090075,-37.89432 8.405564,-9.49743 13.396219,-16.10474 22.243796,-24.97432 3.227025,-3.23506 6.728331,-6.18439 10.092497,-9.27659 9.838378,-8.3253 7.369684,-4.18279 11.953619,-15.5888 0.838359,-2.08605 1.772629,-4.16186 2.246106,-6.35964 0.227304,-1.0551 0.726004,-5.07152 -1.222367,-5.99821 -0.387371,-0.18425 -0.725294,0.45821 -1.087943,0.68732 1.079794,-12.84753 -0.03041,-9.04444 28.937135,12.50922 1.35665,1.00944 -2.18837,2.57924 -3.32106,3.83482 -1.40854,1.56138 -3.05176,2.92342 -4.30137,4.61469 -7.19837,9.74248 -5.83987,9.92468 -9.82827,23.06572 -0.52345,6.54658 -1.0469,13.09315 -1.570351,19.63973 -1.830544,7.86322 -4.647888,15.56039 -5.491629,23.58966 -0.91255,8.68407 1.497799,17.55063 0.26016,26.19436 -1.218531,8.51028 -5.85778,16.23334 -7.542197,24.66378 -1.412634,7.07018 -0.929166,14.39408 -1.694053,21.5633 -0.497813,4.66598 -1.394521,9.28072 -2.091783,13.92108 -4.381875,15.90396 19.759683,1.13974 14.981794,-0.31707 -9.521577,-2.90319 -19.909566,-0.28084 -29.862752,-0.12899 -0.2262,0.003 0.255548,0.78299 0.353754,0.57919 0.687826,-1.4274 0.814705,-3.08748 1.534996,-4.49878 0.928063,-1.81839 2.247244,-3.40899 3.370865,-5.11348 2.717393,-1.75904 6.138572,-2.23077 8.870189,-3.97262 1.082968,-0.69057 1.959178,-1.66613 2.86431,-2.57743 0.852601,-0.8584 1.379842,-2.0725 2.400089,-2.72279 3.354683,-2.13823 13.789528,-3.08255 15.445028,-3.3462 17.95623,-10.58202 11.1925,-4.91275 27.24273,-22.93902 5.74198,-6.4489 12.25857,-12.35137 16.89773,-19.634 4.88389,-7.66684 6.25628,-17.27706 11.3928,-24.777 18.8977,-17.67467 11.64154,-8.58162 23.11536,-26.14763 -1.69252,-3.12717 -2.56333,-6.86705 -5.07755,-9.38151 -9.75849,-9.75944 -31.65108,7.6713 18.59082,-13.15731 0.63383,-0.26277 -1.37525,0.0481 -2.05839,-0.0162 -14.50262,-1.36381 -8.62475,-3.8836 -17.49546,3.12917 -0.68361,0.79914 -1.36721,1.59827 -2.05082,2.3974 12.52679,-20.57295 41.62132,-2.8574 29.09454,17.71555 v 0 c -1.11336,1.4707 -2.22672,2.94141 -3.34008,4.41211 -9.95094,6.76996 -6.03177,6.2491 -20.45957,4.64241 -1.00044,-0.11141 -3.60086,-0.83384 -2.71766,-1.31678 7.45426,-4.07604 16.22654,-5.52216 23.43825,-10.01339 4.93941,-3.07611 -27.34454,3.61857 -17.34972,1.93093 -11.1531,17.73021 -4.3709,8.30531 -21.22607,27.62059 -5.0379,7.47624 -7.58045,16.4891 -12.88185,23.78086 -5.08714,6.99705 -12.14734,12.32541 -18.00033,18.69569 -15.35384,16.71081 -11.40273,11.76061 -21.07491,29.0465 -0.604,3.40041 -0.80313,6.89823 -1.81201,10.20122 -0.52233,1.71007 -1.7384,3.12865 -2.71669,4.62535 -0.75501,1.1551 -1.68027,2.19043 -2.47547,3.31824 -0.84555,1.19919 -3.446609,5.08326 -4.077934,6.56065 -0.220461,0.51591 -0.165139,1.10986 -0.247708,1.66479 0.705181,-0.26418 1.572184,-0.27118 2.115545,-0.79255 0.478007,-0.45867 1.055357,-2.40736 0.662997,-1.87358 -0.775508,1.05507 -0.552017,3.22412 -1.837787,3.47185 -16.705972,3.21875 -43.343976,11.43374 -25.182164,-5.63358 2.542162,-2.38896 5.925776,-3.68295 8.888662,-5.52442 1.751415,-7.77666 6.640293,-29.00996 7.37039,-34.8976 1.053615,-8.49658 0.569367,-17.13181 1.530768,-25.63932 0.968856,-8.57349 2.949109,-17.00343 4.251968,-25.53256 3.68328,-24.1125 3.052156,-20.90477 4.866933,-43.42121 -1.243337,-4.85802 -1.771906,-9.95757 -3.730016,-14.57407 -1.419807,-3.34738 -4.041815,-6.05102 -6.245069,-8.9435 -1.453214,-1.90781 -2.919143,-3.84366 -4.710089,-5.43868 -0.623289,-0.5551 -3.103822,-1.21984 -2.354223,-0.85279 28.570017,13.9895 20.163297,20.0841 29.376087,12.92591 -1.06786,-0.0422 -2.13503,-0.14366 -3.20358,-0.12652 -1.08525,0.0174 -2.17832,0.41392 -3.24801,0.23004 -7.854692,-1.35019 -0.53048,-2.20871 -10.160396,-4.56723 -9.883524,-2.42063 -9.3965,-0.25648 -17.834441,5.11154 -6.813592,6.43395 -14.669736,13.67101 -21.02734,20.48305 -45.82299,49.09841 22.5562,-22.89796 -23.02849,27.21663 -27.2081988,29.91196 0.869638,-4.66246 -22.13312,24.52401 -0.158955,4.82874 -0.891846,9.67272 -0.476865,14.48622 0.220263,2.5549 -0.147856,6.77427 2.357094,7.32314 8.592413,1.88273 2.603462,-11.001 2.375303,-11.33676 -0.970785,-1.42862 1.044372,3.29284 1.566558,4.93926 -11.2245907,1.44368 -22.4491811,2.88737 -33.673772,4.33105 6.0077607,-5.85927 2.77828,-2.10299 7.3816007,-8.97529 1.6178318,-2.41526 3.8013302,-4.51715 4.9217512,-7.19959 1.2979681,-3.10752 1.7160238,-6.52763 2.2037329,-9.85983 4.5933173,-31.38315 -3.9654177,10.37819 4.3080597,-26.8985 3.1063743,-9.75392 7.5530175,-24.24869 11.2714335,-33.74282 2.189355,-5.59002 4.696367,-11.0519 7.190699,-16.51266 2.237774,-4.89908 5.971566,-9.27513 7.003119,-14.56139 2.053428,-10.52291 -1.902093,-13.69306 -6.927036,-20.9974 4.663958,-20.210488 33.245897,-13.614656 28.581941,6.59583 z"
         id="path833"
         style="opacity:0.25;fill:#d40000;fill-opacity:1;stroke:none;stroke-width:0.26499999;stroke-miterlimit:4;stroke-dasharray:none;stroke-dashoffset:0;stroke-opacity:0.58585857" />
      <path
         inkscape:connector-curvature="0"
         d="m 97.503279,112.19291 c -0.668676,4.98665 -3.735417,9.25978 -4.789117,14.1153 -0.531752,2.45034 -0.306536,5.0079 -0.59681,7.49843 -0.304007,2.60832 -0.964354,5.17163 -1.184897,7.78833 -0.230733,2.73758 0.281188,5.52955 -0.166034,8.24019 -0.533239,3.23201 -1.833375,6.28965 -2.750064,9.43447 -0.826963,3.49158 -2.129501,6.9038 -2.480889,10.47473 -0.581411,5.9085 0.333682,13.91249 3.266517,19.29129 2.000546,3.669 5.887098,6.90861 9.735584,8.56224 1.093836,0.47001 2.329881,0.49112 3.494811,0.73667 -11.052173,-1.50911 -22.727223,-0.57037 -33.156526,-4.52735 -2.34918,-0.8913 1.246372,-5.12266 3.012876,-6.90943 1.077204,-1.08955 3.043055,-0.3945 4.538377,-0.72843 4.49757,-1.00441 18.873396,-4.63756 21.536129,-7.11644 4.016164,-3.73886 5.383324,-9.56318 8.074984,-14.34477 20.32733,-36.65911 -3.52917,5.72716 20.19848,-34.2107 3.11431,-5.24195 5.59301,-10.86402 8.96235,-15.94579 2.26692,-3.41906 6.71609,-5.52034 7.87864,-9.45447 7.45166,-25.216805 -15.20316,3.42245 6.0611,-19.183119 5.67513,2.784364 13.36557,3.198913 17.02538,8.353091 3.11523,4.387247 0.81548,10.776288 0.36503,16.138168 -0.0508,0.60476 -1.1839,0.65728 -1.75996,0.4663 -1.57391,-0.5218 -2.80626,-3.17288 -4.31248,-2.47949 -4.00179,1.84225 -8.01245,4.88732 -9.7302,8.94411 -2.30311,5.43926 -1.02137,11.7693 -1.53205,17.65394 -1.80975,77.22897 -0.0925,-33.95165 1.75079,48.00038 0.18501,8.22537 -1.29446,16.42754 -1.17899,24.65418 0.27643,19.69325 2.31018,25.5217 5.06748,44.07929 0.6395,4.30401 1.11215,8.63117 1.66822,12.94676 12.21389,18.55533 14.20364,-8.60102 9.86291,-8.50757 -9.06336,0.19511 -16.92436,6.726 -24.69102,11.40164 -0.90103,0.54243 1.20817,3.96049 0.60971,3.09565 -4.47183,-6.46221 -1.23838,-5.96547 4.04766,-11.19317 4.89835,-2.32604 11.08397,-2.93281 14.69504,-6.97811 3.8767,-4.34288 4.06308,-10.91104 6.13137,-16.35269 3.00389,-7.9032 6.38015,-15.67112 9.08508,-23.68158 2.8484,-8.43534 5.13073,-17.05213 7.56183,-25.61706 2.16075,-7.61249 4.12098,-15.28052 6.21286,-22.91222 1.54652,-5.64209 3.13486,-11.27263 4.70229,-16.90894 12.67283,-40.39499 -3.88615,18.99411 0.32975,-20.00776 0.43162,-3.99294 7.09348,-8.56612 9.75051,-10.91479 1.15994,-1.02533 3.01225,-4.71082 3.36329,-3.20299 2.71243,11.6507 2.79255,23.76103 4.18882,35.64155 -4.99284,-1.28053 -9.98568,-2.56105 -14.97852,-3.84158 -20.20176,-15.05541 1.08982,-43.62501 21.29158,-28.5696 v 0 c -4.68379,-1.27659 -9.36757,-2.55318 -14.05136,-3.82976 1.56404,11.82711 2.38706,23.77606 4.69214,35.48134 0.21846,1.1094 1.31371,-1.86867 1.71922,-2.92416 0.52216,-1.35908 1.02903,-5.0005 -1.07562,-5.80129 -12.32556,-4.68972 -10.09711,-1.62375 -14.83796,8.08759 -4.68939,22.143 -2.60376,15.42282 -11.10684,39.75812 -2.94073,8.41619 -6.64282,16.57322 -9.19411,25.11553 -2.43263,8.14501 -3.57367,16.62697 -5.7288,24.84977 -1.4666,5.59578 -5.62954,10.81589 -5.12933,16.579 0.42187,4.86046 5.10084,8.31802 7.65126,12.47703 0.98294,0.44115 2.09358,1.97868 2.94882,1.32344 0.87118,-0.66744 -0.34121,-4.36156 -0.41275,-3.26643 -0.83575,12.79343 9.16156,16.88132 -24.18804,20.26202 -6.72172,0.68139 -4.40153,-25.11904 5.77683,-19.42784 -3.49231,-12.4409 -5.90371,-18.67777 -6.14895,-32.75524 -0.1421,-8.15716 1.65869,-16.25093 1.81444,-24.40784 0.15698,-8.2207 -0.45397,-16.4397 -0.87766,-24.65097 -4.42203,-85.700577 0.73661,32.77445 -2.64619,-47.99882 -2.50809,-34.87269 3.6243,-3.05797 -12.0231,-28.64067 -1.67542,-2.73923 -0.80106,-6.403233 -1.73474,-9.475481 -0.21109,-0.694619 -1.62843,-2.207805 -1.59546,-1.482566 0.86408,19.010437 0.35747,13.638007 16.80971,23.109027 0.70831,-1.43218 13.92722,-20.18232 -5.6454,-12.94492 -3.80626,1.40744 -4.64299,6.66471 -7.18371,9.82909 -3.86705,4.81627 -8.93106,8.75173 -12.02659,14.09666 -3.59917,6.21454 -5.18296,13.39533 -7.77444,20.09299 -3.22617,5.2408 -6.45235,10.48159 -9.67852,15.72238 -2.88843,4.67663 -6.81349,8.8545 -8.665288,14.0299 -2.166226,6.05414 -1.112346,15.51734 -0.137295,21.98071 0.226946,1.50436 -0.532194,4.45516 0.989192,4.45567 1.705511,5.3e-4 1.678161,-2.96966 2.517241,-4.45449 -11.459899,-1.05008 -22.919802,-2.10017 -34.379703,-3.15025 0.89227,-0.14703 1.839349,-0.0999 2.676808,-0.44108 3.929785,-1.60114 9.178452,-4.96119 11.256855,-8.65415 1.49013,-2.6477 1.873596,-5.81937 2.237848,-8.83567 0.974876,-8.07274 -0.270624,-13.08581 -1.396653,-21.03395 -0.93784,-3.18663 -2.204797,-6.29437 -2.813516,-9.55988 -0.496697,-2.66456 -0.150482,-5.42695 -0.481616,-8.1171 -0.303652,-2.46687 -1.032163,-4.86501 -1.418593,-7.32027 -0.348128,-2.2119 0.05175,-4.59404 -0.783552,-6.67153 -2.034771,-5.06069 -3.5281,-5.094 -7.40186,-6.84895 -6.000237,-20.0008 22.285154,-28.486413 28.285391,-8.48562 z"
         id="path835"
         style="opacity:0.25;fill:#d40000;fill-opacity:1;stroke:none;stroke-width:0.26499999;stroke-miterlimit:4;stroke-dasharray:none;stroke-dashoffset:0;stroke-opacity:0.58585857" />
      <path
         inkscape:connector-curvature="0"
         d="m 62.929666,214.41268 c -0.786622,1.79936 -1.79772,3.51647 -2.359869,5.39808 -1.021236,3.41826 -1.243785,7.9637 -1.258539,11.51587 -0.007,1.67712 -0.09589,3.37481 0.186913,5.02792 0.349808,2.04474 1.891395,5.18301 2.769669,7.12493 0.378642,0.79188 1.047599,1.50233 1.135925,2.37561 0.495718,4.9013 -1.806451,3.87552 0.826047,8.11534 0.530427,0.85428 1.812145,2.96854 2.2155,2.04742 0.810828,-1.85164 0.647729,-4.35839 -0.464379,-6.04636 -4.54924,-6.90488 -10.67041,-12.63464 -16.005617,-18.95196 -2.069534,2.77802 -8.238368,5.52685 -6.208604,8.33406 2.186863,3.02448 7.761756,0.11006 11.082952,-1.59274 8.923763,-4.57526 18.7662,-18.42614 24.25981,-25.57545 27.488726,-35.77348 -3.453059,2.87364 24.263826,-31.34481 2.26069,-10.20317 12.74759,-15.17564 17.00362,-24.01148 1.45206,-3.0146 0.14902,-6.9715 1.81645,-9.87252 6.0417,-10.5115 15.13237,-9.25853 22.27008,2.74407 2.50658,4.215 0.0405,9.8079 0.0607,14.71186 -0.26732,0.33561 -0.53464,0.67123 -0.80197,1.00684 -1.61732,-0.21449 -3.50815,-1.56863 -4.85195,-0.64347 -2.81289,1.9366 -4.76301,5.07843 -6.13331,8.20652 -4.56521,10.42131 -3.19388,17.38171 -3.07013,28.50783 0.0576,5.17457 0.10859,10.34922 0.16288,15.52383 -0.0583,7.86645 -1.73658,15.03271 3.41155,21.82633 1.69959,2.24282 4.43108,3.51009 6.8906,4.87742 1.64751,0.91589 4.33907,3.52033 5.32192,1.91188 1.49939,-2.45378 0.95387,-6.71707 -1.27677,-8.53184 -5.48715,-4.46418 -13.0001,-5.58109 -19.50014,-8.37163 -2.80731,1.85259 -5.61463,3.70518 -8.42194,5.55777 0.25418,-0.86506 -0.13735,-2.53897 0.76253,-2.5952 1.02032,-0.0638 0.89245,2.13227 1.87023,2.43068 4.79428,1.46322 21.36939,-2.94422 21.80671,-3.25974 5.02525,-3.62567 6.94187,-10.26668 10.41281,-15.40002 17.28931,-22.20128 10.61028,-11.36685 23.61857,-37.74011 3.36981,-6.83203 7.26894,-13.44292 9.95508,-20.57153 2.55755,-6.78739 3.2308,-14.18069 5.70859,-20.99761 3.65608,-10.05864 9.26925,-18.6386 14.70014,-27.70061 2.40918,-5.83844 4.83704,-11.166483 6.5131,-17.259929 0.681,-2.475816 0.71929,-5.116713 1.55471,-7.544776 0.70616,-2.052386 1.12613,-6.817136 3.02512,-5.766038 31.45511,17.410591 30.93371,15.558278 18.64648,23.545113 -7.20441,3.79013 -12.50923,5.13921 -14.81478,15.26073 -1.4913,6.5469 0.72531,13.42697 0.49666,20.13767 -0.26939,7.9065 -1.96196,15.73876 -1.9886,23.64981 -0.0251,7.44015 1.45944,14.81435 1.83408,22.24511 0.3148,6.24404 0.15532,12.50298 0.23299,18.75448 -0.0435,4.85669 -0.72904,21.70706 0.96088,27.56474 3.00208,10.40599 4.80506,6.57384 11.12679,13.35873 1.23942,1.33023 1.65395,3.252 2.69841,4.74021 1.16767,1.66376 2.60769,3.11868 3.91153,4.67802 -0.046,1.45414 -0.10763,2.90786 -0.13807,4.36241 -0.0303,1.44905 -0.96479,3.2284 -0.0442,4.34788 0.65041,0.79096 1.2347,-1.74187 1.3505,-2.75934 0.29486,-2.59071 0.23184,-5.24106 -0.14632,-7.82093 -0.0609,-0.41527 -0.8186,0.49693 -0.86611,0.91395 -0.10401,0.91292 0.30146,1.81275 0.45219,2.71913 -1.2796,2.19921 -2.33691,3.51203 -2.51409,6.25846 -0.17729,2.74809 0.79788,4.2924 1.44884,6.7815 0.28787,1.10074 0.98905,4.44181 0.71481,3.33759 -1.82086,-7.33154 -3.57002,-14.68071 -5.35503,-22.02107 1.83036,4.42421 4.47411,8.59399 5.49108,13.27262 0.27217,1.2521 -1.46323,2.14195 -1.87686,3.35469 -0.29662,0.86966 -0.11601,1.83439 -0.20488,2.74893 -0.0783,0.80593 -0.44879,1.61572 -0.29656,2.41101 0.11643,0.60832 1.67066,1.53463 1.0513,1.53206 -10.61802,-0.044 -21.20738,-1.10644 -31.81107,-1.65966 7.87186,-12.58275 0.33463,-1.77701 9.29056,-11.66242 1.54668,-1.70719 2.73044,-3.72056 4.27221,-5.43218 2.0824,-2.31178 4.69598,-4.14377 6.58236,-6.61809 5.25144,-6.88822 5.06775,-9.22836 7.26379,-17.30262 -1.06498,-2.67071 -1.62885,-5.60086 -3.19495,-8.01212 -4.45229,-6.85502 -43.9977,-24.0113 25.2734,-8.58255 3.54648,0.78991 0.17885,7.28429 -0.19479,10.89841 -0.0737,0.7126 -0.51808,1.44721 -1.12147,1.83341 -1.31639,0.84252 -2.91706,1.12324 -4.37558,1.68487 -4.99485,10.88347 -5.91041,9.20297 -4.56699,21.78842 0.39813,3.72972 0.73333,7.63778 2.41523,10.99048 1.45153,2.89347 4.49273,4.66388 6.64907,7.07828 7.41996,8.30794 1.08783,2.33966 8.27209,8.70464 0.79555,0.98851 1.80844,1.83606 2.38663,2.96555 0.24466,0.47791 -0.16679,1.08731 -0.0443,1.61004 0.0536,0.22882 0.35356,0.30972 0.53035,0.46457 -10.32841,-2.26594 -22.59467,-0.36281 -30.9852,-6.79782 -4.0224,-3.08493 10.90943,-2.21748 13.80542,-6.37797 3.70592,-5.32408 2.60304,-12.70995 3.90456,-19.06492 3.26869,-17.25001 6.84084,-32.0057 7.00105,-49.72867 0.0623,-6.89739 -1.60949,-13.70966 -1.99662,-20.59645 -0.22212,-3.95151 2.59821,-8.74557 0.17145,-11.87202 -2.46593,-3.17693 -11.07629,1.00223 -11.69323,-2.97182 -0.96247,-6.19979 5.75705,-11.14949 8.63558,-16.72423 1.55966,-0.21231 5.80823,-1.73347 4.67898,-0.63693 -2.58744,2.5125 -6.55326,3.12077 -9.44982,5.26959 -0.38104,0.28268 0.22104,1.54075 0.61862,1.28186 0.99551,-0.64823 1.44028,-1.90628 1.97184,-2.96867 2.22747,-4.45181 1.6458,-3.50054 0.60587,-8.15075 -0.35857,-1.23089 -1.04189,-2.41107 -1.0757,-3.69267 -0.04,-1.51711 0.72193,-2.95958 0.86032,-4.4709 0.15266,-1.66699 -0.0891,-3.35081 0.009,-5.0219 0.10294,-1.75386 0.68529,-3.48269 0.59314,-5.23715 -1.01603,-19.34412 -1.57958,7.2892 -0.98337,-9.67766 -2.00051,-4.99275 -3.20466,-5.93319 -2.23255,-11.40675 0.35589,-2.003879 0.5326,-4.364424 2.0084,-5.765931 2.61889,-2.487075 6.34463,-3.452865 9.51695,-5.179298 24.61439,-6.214064 33.40239,28.595939 8.78802,34.809999 v 0 c 2.55132,-2.0401 5.4293,-3.72819 7.65397,-6.1203 1.32763,-1.42757 2.35037,-4.75787 0.0545,-6.14741 -0.76261,-0.46157 -1.78213,0.0501 -2.67322,0.0752 -0.2867,1.46804 -0.46384,2.96179 -0.86013,4.40412 -0.46112,1.67827 -1.60012,3.19765 -1.7058,4.9349 -0.0992,1.63124 1.00045,3.14404 1.11514,4.77427 0.1084,1.54105 -0.57925,3.07236 -0.45479,4.61219 1.47815,18.28565 1.34985,-9.77835 1.14046,9.43971 -0.46207,1.89272 -1.36448,3.72998 -1.3862,5.67817 -0.023,2.05509 0.9076,4.01091 1.25558,6.03645 0.83198,4.84275 2.11825,10.02797 -1.49712,14.49811 -3.38992,4.19137 -8.72535,6.43537 -12.40705,10.37291 -0.50636,0.54154 1.42623,0.40553 2.13936,0.60829 2.2234,-5.97415 8.77401,-11.90515 6.6702,-17.92245 -1.35096,-3.86398 -9.06708,1.69977 -11.0999,5.25266 -1.98725,3.47323 1.0893,7.94019 1.26411,11.93792 0.30005,6.86161 0.43861,13.74142 0.15888,20.60389 -0.90877,22.29426 -2.43996,28.14846 -5.82847,49.92705 -0.11188,6.5628 -2.19074,13.39226 -0.33563,19.68841 1.46873,4.9848 14.42523,9.96402 9.72648,12.18377 -9.64137,4.55473 -21.33176,-0.65507 -31.94475,-1.68754 -0.62349,-0.0607 0.95567,-0.81664 1.36949,-1.28692 0.93632,-1.06409 0.94372,-1.3125 1.43335,-2.48899 2.08081,-1.31244 8.72762,-5.42801 9.46272,-6.41978 5.06054,-6.82757 3.79771,-11.95477 0.94671,-19.53856 -1.38327,-3.67959 -3.00282,-7.40837 -5.54063,-10.41043 -2.59332,-3.06772 -6.34225,-4.93162 -9.51337,-7.39743 -2.05969,-2.73496 -4.14294,-5.45235 -6.17908,-8.2049 -0.70453,-0.95242 -1.69543,-4.04164 -2.04204,-2.9088 -0.80653,2.63597 -2.33467,7.95269 0.40476,8.25988 9.84338,1.10383 19.4912,-3.57725 29.30368,-4.92842 4.65945,-0.6416 -21.84438,4.4088 -12.17119,7.13869 -1.74381,5.80014 -4.28593,13.01893 -4.58896,19.14229 -0.16313,3.29644 0.92731,6.56695 0.83518,9.86614 -0.1039,3.72019 -3.27874,7.77205 0.60346,11.12334 0.75083,0.64815 1.95322,-0.34687 2.92983,-0.52031 -11.28567,0.36788 -22.5661,1.23311 -33.85702,1.10362 -0.82928,-0.01 1.5302,-0.79108 2.00809,-1.46886 0.44535,-0.63162 0.61713,-1.46528 0.60559,-2.23803 -0.0108,-0.72129 -0.29039,-1.4443 -0.66976,-2.05787 -0.23616,-0.38194 -1.20334,-1.22493 -1.09115,-0.79011 1.01057,3.91669 2.57068,7.67062 3.85601,11.50593 -1.79594,-7.59505 -3.59188,-15.1901 -5.38783,-22.78515 0.33869,0.99462 0.32699,2.19067 1.01607,2.98385 0.66379,0.76406 1.91809,0.72465 2.73034,1.32852 0.31936,0.23743 -0.90071,0.1063 -1.18073,-0.17646 -0.16831,-0.16996 0.30879,-0.3654 0.46318,-0.5481 -0.39193,-0.36556 -0.78386,-0.73113 -1.17578,-1.0967 0.18915,0.0902 0.77686,0.26323 0.56744,0.27048 -0.60026,0.0208 -1.66381,0.35954 -1.78734,-0.22824 -0.59436,-2.82792 -0.66525,-5.83837 -0.0826,-8.66873 0.24776,-1.20347 1.22238,-2.95403 2.4366,-2.76594 2.34495,0.36324 0.19907,4.01518 -0.16143,4.75648 1.54736,0.0276 3.22017,0.69388 4.64208,0.0829 1.40523,-0.60378 2.22324,-2.13399 3.08011,-3.40088 3.78474,-5.59577 5.35975,-9.22255 5.62815,-16.29557 0.15069,-3.97124 -0.749,-7.91466 -0.97618,-11.88226 -0.30028,-5.24415 -0.40388,-10.49771 -0.60582,-15.74657 0.11451,-6.25125 -0.0405,-12.51325 0.34355,-18.75374 0.45827,-7.4469 2.34799,-14.81728 2.18138,-22.27641 -0.17748,-7.94517 -2.78193,-15.68902 -3.20668,-23.62481 -0.35952,-6.71696 1.93753,-13.52105 0.8631,-20.16126 -0.91431,-5.65062 -9.66678,-18.347771 -12.85913,-23.319874 -1.35929,-0.723477 -5.2592,-3.158103 -4.07786,-2.170431 7.83021,6.546498 15.20654,13.873745 24.08895,18.900835 1.59044,0.90013 0.69485,-3.97778 -0.35916,-5.4707 -0.88566,-1.25448 -2.8887,-1.18395 -4.42002,-1.29863 -8.72752,-0.6536 -7.99506,0.71839 -15.83992,5.52541 -8.54685,12.29489 -9.36285,11.78355 -14.52075,27.63155 -2.25797,6.93777 -2.9399,14.34844 -5.45454,21.19736 -2.63414,7.17439 -6.22138,13.98271 -9.91812,20.67186 -7.32925,13.26207 -16.02271,24.82122 -24.75526,37.12162 -3.21548,5.32022 -8.18181,9.91923 -9.64644,15.96067 -1.25429,5.17378 1.38469,10.55819 1.93372,15.85345 0.27224,2.62578 0.48653,5.26236 0.52928,7.90187 0.0215,1.32838 -0.72719,2.70142 -0.33698,3.97137 0.18863,0.6139 0.70908,-1.071 1.06362,-1.6065 -3.20361,1.54563 -6.40722,3.09126 -9.61083,4.63689 -6.756,-2.29954 -14.71781,-2.41233 -20.26801,-6.89861 -8.49022,-6.86271 -0.53508,-9.90855 2.63456,-11.84087 2.5182,-1.53518 5.58879,-2.4355 7.51639,-4.66764 5.72085,-6.62467 4.24503,-13.68828 4.50361,-21.74636 -0.19169,-5.17093 -0.45946,-10.33961 -0.57506,-15.51281 -0.25429,-11.37989 1.29357,-17.82316 -3.5978,-28.37359 -1.67999,-3.62365 -5.30331,-6.09272 -7.0679,-9.67593 -3.58794,-7.28572 -2.87881,-7.71952 -1.5269,-13.22829 1.38801,7.65183 0.27465,16.5768 13.35443,15.38231 2.23112,-0.20375 2.29739,-5.17503 0.64686,-6.69002 -9.35897,-8.59038 -13.36721,3.63081 -16.9385,8.44983 -3.36963,4.54693 -6.83888,9.01918 -10.25832,13.52878 -3.818538,5.25931 -7.704201,10.47053 -11.455601,15.77793 -3.896442,5.51261 -7.324794,11.36411 -11.486153,16.67957 -7.690276,9.82309 -16.919628,15.98187 -20.798388,28.35572 -1.36748,4.36248 1.210392,9.59546 -0.821902,13.6907 -2.588228,5.21549 -8.122404,8.34431 -12.183605,12.51647 -0.712785,-0.77352 -21.169089,-14.61964 -16.379108,-24.21206 0.398124,-0.79728 1.732997,0.49064 2.503146,0.93901 0.254217,0.148 0.248492,0.53955 0.43176,0.76965 1.15501,1.4501 1.215144,-0.91289 1.929739,-2.33208 1.685774,-4.26509 1.145776,-2.46154 2.252041,-7.1592 0.865621,-3.67578 1.576268,-5.5726 1.097571,-9.42098 -0.198647,-1.59696 -0.430149,-3.27321 -1.233609,-4.66756 -0.78022,-1.35401 -2.231573,-2.18826 -3.347361,-3.28238 -2.926365,-20.48457 26.043182,-24.62307 28.969548,-4.13851 z"
         id="path837"
         style="opacity:0.25;fill:#d40000;fill-opacity:1;stroke:none;stroke-width:0.26499999;stroke-miterlimit:4;stroke-dasharray:none;stroke-dashoffset:0;stroke-opacity:0.58585857" />
    </g>
  </g>
</svg>
