<?xml version="1.0" encoding="UTF-8" standalone="no"?>
<!-- Created with Inkscape (http://www.inkscape.org/) -->

<svg
   xmlns:dc="http://purl.org/dc/elements/1.1/"
   xmlns:cc="http://creativecommons.org/ns#"
   xmlns:rdf="http://www.w3.org/1999/02/22-rdf-syntax-ns#"
   xmlns:svg="http://www.w3.org/2000/svg"
   xmlns="http://www.w3.org/2000/svg"
   xmlns:sodipodi="http://sodipodi.sourceforge.net/DTD/sodipodi-0.dtd"
   xmlns:inkscape="http://www.inkscape.org/namespaces/inkscape"
   width="48"
   height="48"
   viewBox="0 0 12.7 12.7"
   version="1.1"
   id="svg827"
   inkscape:version="0.92.3 (2405546, 2018-03-11)"
   sodipodi:docname="convol.svg">
  <defs
     id="defs821" />
  <sodipodi:namedview
     id="base"
     pagecolor="#ffffff"
     bordercolor="#666666"
     borderopacity="1.0"
     inkscape:pageopacity="0.0"
     inkscape:pageshadow="2"
     inkscape:zoom="15.839192"
     inkscape:cx="21.094878"
     inkscape:cy="23.870909"
     inkscape:document-units="mm"
     inkscape:current-layer="text1080"
     showgrid="false"
     units="px"
     inkscape:window-width="1920"
     inkscape:window-height="1057"
     inkscape:window-x="-8"
     inkscape:window-y="-8"
     inkscape:window-maximized="1"
     inkscape:pagecheckerboard="true" />
  <metadata
     id="metadata824">
    <rdf:RDF>
      <cc:Work
         rdf:about="">
        <dc:format>image/svg+xml</dc:format>
        <dc:type
           rdf:resource="http://purl.org/dc/dcmitype/StillImage" />
        <dc:title />
      </cc:Work>
    </rdf:RDF>
  </metadata>
  <g
     inkscape:label="Capa 1"
     inkscape:groupmode="layer"
     id="layer1"
     transform="translate(0,-284.3)" />
  <g
     inkscape:groupmode="layer"
     id="layer2"
     inkscape:label="Capa 2">
    <rect
       style="opacity:1;fill:none;fill-opacity:1;stroke:#000000;stroke-width:0.28099999;stroke-miterlimit:4;stroke-dasharray:none;stroke-dashoffset:0;stroke-opacity:1"
       id="rect1372"
       width="11.1755"
       height="11.1755"
       x="0.76225007"
       y="0.76225585" />
    <g
       aria-label="Micrófono"
       style="font-style:normal;font-weight:normal;font-size:2.11666656px;line-height:1.25;font-family:sans-serif;letter-spacing:0px;word-spacing:0px;fill:#000000;fill-opacity:1;stroke:none;stroke-width:0.26458332"
       id="text1080">
      <g
         aria-label="+"
         style="font-style:normal;font-weight:normal;font-size:8.65721703px;line-height:1.25;font-family:sans-serif;letter-spacing:0px;word-spacing:0px;fill:#000000;fill-opacity:1;stroke:none;stroke-width:0.15617421"
         id="text886">
        <path
           d="M 4.6821094,3.1101538 6.3470109,4.7750553 8.0119124,3.1101538 8.5200511,3.6182924 6.8551496,5.2831939 8.5200511,6.9480955 8.0178905,7.450256 6.352989,5.7853545 4.6880875,7.450256 4.1799488,6.9421174 5.8448503,5.2772159 4.1799488,3.6123143 Z"
           style="stroke-width:0.15617421"
           id="path897"
           inkscape:connector-curvature="0" />
        <path
           d="M 3.6361654,4.9251237 H 5.9906917 V 2.5705975 h 0.7186164 l 10e-8,2.3545262 2.3545264,2e-7 v 0.710162 l -2.3545263,2e-7 -1e-7,2.3545262 H 5.9906917 V 5.6352861 l -2.3545264,-1e-7 z"
           style="font-style:normal;font-weight:normal;font-size:8.65721703px;line-height:1.25;font-family:sans-serif;letter-spacing:0px;word-spacing:0px;fill:#000000;fill-opacity:1;stroke:none;stroke-width:0.15617421"
           id="path897-8"
           inkscape:connector-curvature="0" />
      </g>
      <g
         aria-label="convolución"
         style="font-style:normal;font-weight:normal;font-size:1.70520294px;line-height:1.25;font-family:sans-serif;letter-spacing:0px;word-spacing:0px;fill:#000000;fill-opacity:1;stroke:none;stroke-width:0.03076147"
         id="text917">
        <path
           d="m 2.1040616,9.9023268 v 0.1432102 q -0.064944,-0.0358 -0.1307212,-0.053287 -0.064944,-0.018318 -0.1315537,-0.018318 -0.1490387,0 -0.231468,0.094918 -0.082429,0.09409 -0.082429,0.264773 0,0.170687 0.082429,0.265606 0.082429,0.09409 0.231468,0.09409 0.066609,0 0.1315537,-0.01749 0.065777,-0.01832 0.1307212,-0.05412 v 0.141545 q -0.064112,0.02998 -0.133219,0.04496 -0.068275,0.01499 -0.1457083,0.01499 -0.2106525,0 -0.3347127,-0.132386 -0.1240601,-0.132387 -0.1240601,-0.357194 0,-0.228137 0.1248928,-0.3588584 0.1257254,-0.1307212 0.3438715,-0.1307212 0.070773,0 0.1382146,0.014987 0.067442,0.014155 0.1307212,0.043296 z"
           style="stroke-width:0.03076147"
           id="path820" />
        <path
           d="m 2.7335212,9.973932 q -0.1232275,0 -0.1948327,0.096584 -0.071605,0.09575 -0.071605,0.263107 0,0.167357 0.070773,0.26394 0.071605,0.09575 0.1956653,0.09575 0.122395,0 0.1940002,-0.09658 0.071605,-0.09658 0.071605,-0.263108 0,-0.165691 -0.071605,-0.262275 Q 2.8559162,9.973932 2.7335212,9.973932 Z m 0,-0.1298886 q 0.1998285,0 0.3138972,0.1298886 0.1140688,0.129888 0.1140688,0.359691 0,0.22897 -0.1140688,0.359691 -0.1140687,0.129889 -0.3138972,0.129889 -0.2006611,0 -0.3147298,-0.129889 -0.1132361,-0.130721 -0.1132361,-0.359691 0,-0.229803 0.1132361,-0.359691 0.1140687,-0.1298886 0.3147298,-0.1298886 z"
           style="stroke-width:0.03076147"
           id="path822" />
        <path
           d="m 4.1897711,10.236207 v 0.56285 H 4.0365693 v -0.557854 q 0,-0.132387 -0.051622,-0.198164 -0.051622,-0.065777 -0.154867,-0.065777 -0.1240602,0 -0.1956654,0.079099 -0.071605,0.0791 -0.071605,0.215648 v 0.527048 H 3.4087749 V 9.8665242 H 3.5628093 V 10.0114 q 0.054953,-0.084095 0.1290559,-0.1257256 0.074936,-0.041631 0.172352,-0.041631 0.1606954,0 0.2431247,0.099914 0.082429,0.099081 0.082429,0.2922493 z"
           style="stroke-width:0.03076147"
           id="path824" />
        <path
           d="M 4.3871019,9.8665242 H 4.5494625 L 4.8408791,10.649186 5.1322956,9.8665242 H 5.2946562 L 4.9449564,10.799057 H 4.7368017 Z"
           style="stroke-width:0.03076147"
           id="path826" />
        <path
           d="m 5.8674976,9.973932 q -0.1232275,0 -0.1948327,0.096584 -0.071605,0.09575 -0.071605,0.263107 0,0.167357 0.070773,0.26394 0.071605,0.09575 0.1956653,0.09575 0.122395,0 0.1940002,-0.09658 0.071605,-0.09658 0.071605,-0.263108 0,-0.165691 -0.071605,-0.262275 Q 5.9898926,9.973932 5.8674976,9.973932 Z m 0,-0.1298886 q 0.1998285,0 0.3138972,0.1298886 0.1140688,0.129888 0.1140688,0.359691 0,0.22897 -0.1140688,0.359691 -0.1140687,0.129889 -0.3138972,0.129889 -0.2006611,0 -0.3147298,-0.129889 -0.1132361,-0.130721 -0.1132361,-0.359691 0,-0.229803 0.1132361,-0.359691 0.1140687,-0.1298886 0.3147298,-0.1298886 z"
           style="stroke-width:0.03076147"
           id="path828" />
        <path
           d="M 6.5485797,9.5035024 H 6.7017815 V 10.799057 H 6.5485797 Z"
           style="stroke-width:0.03076147"
           id="path830" />
        <path
           d="M 7.0056875,10.43104 V 9.8665242 h 0.1532018 v 0.5586868 q 0,0.132387 0.051622,0.198996 0.051622,0.06578 0.154867,0.06578 0.1240602,0 0.1956654,-0.0791 0.072438,-0.0791 0.072438,-0.215648 V 9.8665242 H 7.7866837 V 10.799057 H 7.6334819 v -0.14321 q -0.055785,0.08493 -0.1298885,0.126558 -0.07327,0.0408 -0.1706868,0.0408 -0.1606954,0 -0.2439573,-0.09991 -0.083262,-0.09991 -0.083262,-0.292249 z M 7.3911899,9.8440434 Z"
           style="stroke-width:0.03076147"
           id="path832" />
        <path
           d="m 8.775002,9.9023268 v 0.1432102 q -0.064944,-0.0358 -0.1307212,-0.053287 -0.064944,-0.018318 -0.1315537,-0.018318 -0.1490387,0 -0.231468,0.094918 -0.082429,0.09409 -0.082429,0.264773 0,0.170687 0.082429,0.265606 0.082429,0.09409 0.231468,0.09409 0.06661,0 0.1315537,-0.01749 0.065777,-0.01832 0.1307212,-0.05412 v 0.141545 q -0.064112,0.02998 -0.133219,0.04496 -0.068275,0.01499 -0.1457083,0.01499 -0.2106525,0 -0.3347127,-0.132386 -0.1240601,-0.132387 -0.1240601,-0.357194 0,-0.228137 0.1248928,-0.3588584 0.1257254,-0.1307212 0.3438715,-0.1307212 0.070773,0 0.1382146,0.014987 0.067442,0.014155 0.1307212,0.043296 z"
           style="stroke-width:0.03076147"
           id="path834" />
        <path
           d="M 9.0431051,9.8665242 H 9.1963069 V 10.799057 H 9.0431051 Z m 0,-0.3630218 H 9.1963069 V 9.6975026 H 9.0431051 Z"
           style="stroke-width:0.03076147"
           id="path836" />
        <path
           d="m 9.8773887,9.973932 q -0.1232276,0 -0.1948328,0.096584 -0.071605,0.09575 -0.071605,0.263107 0,0.167357 0.070773,0.26394 0.071605,0.09575 0.1956654,0.09575 0.1223949,0 0.1940003,-0.09658 0.0716,-0.09658 0.0716,-0.263108 0,-0.165691 -0.0716,-0.262275 Q 9.9997836,9.973932 9.8773887,9.973932 Z m 0,-0.1298886 q 0.1998283,0 0.3138973,0.1298886 0.114069,0.129888 0.114069,0.359691 0,0.22897 -0.114069,0.359691 -0.114069,0.129889 -0.3138973,0.129889 -0.2006611,0 -0.3147299,-0.129889 -0.1132361,-0.130721 -0.1132361,-0.359691 0,-0.229803 0.1132361,-0.359691 Q 9.6767276,9.8440434 9.8773887,9.8440434 Z M 9.9931226,9.4352277 H 10.158814 L 9.8873801,9.7482923 H 9.7599894 Z"
           style="stroke-width:0.03076147"
           id="path838" />
        <path
           d="m 11.333639,10.236207 v 0.56285 h -0.153202 v -0.557854 q 0,-0.132387 -0.05162,-0.198164 -0.05162,-0.065777 -0.154867,-0.065777 -0.12406,0 -0.195665,0.079099 -0.0716,0.0791 -0.0716,0.215648 v 0.527048 H 10.552642 V 9.8665242 h 0.154035 V 10.0114 q 0.05495,-0.084095 0.129056,-0.1257256 0.07493,-0.041631 0.172352,-0.041631 0.160695,0 0.243124,0.099914 0.08243,0.099081 0.08243,0.2922493 z"
           style="stroke-width:0.03076147"
           id="path840" />
      </g>
    </g>
  </g>
</svg>
