<?xml version="1.0" encoding="UTF-8" standalone="no"?>
<!-- Created with Inkscape (http://www.inkscape.org/) -->

<svg
   xmlns:dc="http://purl.org/dc/elements/1.1/"
   xmlns:cc="http://creativecommons.org/ns#"
   xmlns:rdf="http://www.w3.org/1999/02/22-rdf-syntax-ns#"
   xmlns:svg="http://www.w3.org/2000/svg"
   xmlns="http://www.w3.org/2000/svg"
   xmlns:sodipodi="http://sodipodi.sourceforge.net/DTD/sodipodi-0.dtd"
   xmlns:inkscape="http://www.inkscape.org/namespaces/inkscape"
   width="48"
   height="48"
   viewBox="0 0 12.7 12.7"
   version="1.1"
   id="svg827"
   inkscape:version="0.92.3 (2405546, 2018-03-11)"
   sodipodi:docname="diez.svg">
  <defs
     id="defs821" />
  <sodipodi:namedview
     id="base"
     pagecolor="#ffffff"
     bordercolor="#666666"
     borderopacity="1.0"
     inkscape:pageopacity="0.0"
     inkscape:pageshadow="2"
     inkscape:zoom="15.839192"
     inkscape:cx="35.07021"
     inkscape:cy="21.036956"
     inkscape:document-units="mm"
     inkscape:current-layer="text1080"
     showgrid="false"
     units="px"
     inkscape:window-width="1920"
     inkscape:window-height="1057"
     inkscape:window-x="-8"
     inkscape:window-y="-8"
     inkscape:window-maximized="1"
     inkscape:pagecheckerboard="true" />
  <metadata
     id="metadata824">
    <rdf:RDF>
      <cc:Work
         rdf:about="">
        <dc:format>image/svg+xml</dc:format>
        <dc:type
           rdf:resource="http://purl.org/dc/dcmitype/StillImage" />
        <dc:title></dc:title>
      </cc:Work>
    </rdf:RDF>
  </metadata>
  <g
     inkscape:label="Capa 1"
     inkscape:groupmode="layer"
     id="layer1"
     transform="translate(0,-284.3)" />
  <g
     inkscape:groupmode="layer"
     id="layer2"
     inkscape:label="Capa 2">
    <path
       style="opacity:1;fill:none;fill-opacity:1;stroke:#000000;stroke-width:0.28099999;stroke-miterlimit:4;stroke-dasharray:none;stroke-dashoffset:0;stroke-opacity:1"
       d="M 0.76225007,0.76225585 H 11.93775 V 11.937756 H 0.76225007 Z"
       id="rect1372" />
    <g
       aria-label="Micrófono"
       style="font-style:normal;font-weight:normal;font-size:2.11666656px;line-height:1.25;font-family:sans-serif;letter-spacing:0px;word-spacing:0px;fill:#000000;fill-opacity:1;stroke:none;stroke-width:0.26458332"
       id="text1080">
      <g
         aria-label="f(kn)"
         style="font-style:normal;font-weight:normal;font-size:3.22482324px;line-height:1.25;font-family:sans-serif;letter-spacing:0px;word-spacing:0px;fill:#000000;fill-opacity:1;stroke:none;stroke-width:0.05817507"
         id="text845">
        <path
           d="m 3.8636739,4.0555054 v 0.240917 H 3.5865406 q -0.1558874,0 -0.2172976,0.062985 -0.059836,0.062985 -0.059836,0.2267454 V 4.74204 H 3.7865175 V 4.9672108 H 3.3094074 V 6.5056152 H 3.0181026 V 4.9672108 H 2.7409693 V 4.74204 H 3.0181026 V 4.6192196 q 0,-0.2944541 0.136992,-0.4282968 0.136992,-0.1354174 0.4345953,-0.1354174 z"
           style="stroke-width:0.05817507"
           id="path946" />
        <path
           d="M 4.8005733,4.0586546 Q 4.5895741,4.4208174 4.4872237,4.7751071 4.3848734,5.1293967 4.3848734,5.4931341 q 0,0.3637374 0.1023503,0.7211763 0.103925,0.3558643 0.3133496,0.7164524 H 4.5486339 Q 4.3124408,6.560727 4.1943443,6.2032881 4.0778223,5.8458492 4.0778223,5.4931341 q 0,-0.3511404 0.116522,-0.7070047 0.1165219,-0.3558643 0.3542896,-0.7274748 z"
           style="stroke-width:0.05817507"
           id="path948" />
        <path
           d="M 5.3532652,4.0555054 H 5.64457 V 5.5025818 L 6.5090368,4.74204 H 6.8790726 L 5.9437479,5.5671413 6.9184382,6.5056152 H 6.5405292 L 5.64457,5.6442977 V 6.5056152 H 5.3532652 Z"
           style="stroke-width:0.05817507"
           id="path950" />
        <path
           d="M 8.7009087,5.4411716 V 6.5056152 H 8.4111785 V 5.4506194 q 0,-0.2503647 -0.097627,-0.3747598 -0.097626,-0.124395 -0.2928794,-0.124395 -0.2346185,0 -0.3700359,0.149589 Q 7.5152193,5.2506425 7.5152193,5.5088803 V 6.5056152 H 7.2239145 V 4.74204 h 0.2913048 v 0.273984 q 0.103925,-0.1590367 0.2440662,-0.2377677 0.1417159,-0.078731 0.3259465,-0.078731 0.3039018,0 0.4597893,0.1889545 0.1558874,0.1873798 0.1558874,0.5526918 z"
           style="stroke-width:0.05817507"
           id="path952" />
        <path
           d="m 9.2362799,4.0586546 h 0.2519393 q 0.2361931,0.3716105 0.3527151,0.7274748 0.1180965,0.3558643 0.1180965,0.7070047 0,0.3527151 -0.1180965,0.710154 Q 9.7244123,6.560727 9.4882192,6.9307628 H 9.2362799 q 0.2094246,-0.3605881 0.3117749,-0.7164524 0.103925,-0.3574389 0.103925,-0.7211763 0,-0.3637374 -0.103925,-0.718027 Q 9.4457045,4.4208174 9.2362799,4.0586546 Z"
           style="stroke-width:0.05817507"
           id="path954" />
      </g>
      <g
         aria-label="diezmación"
         style="font-style:normal;font-weight:normal;font-size:1.3605088px;line-height:1.25;font-family:sans-serif;letter-spacing:0px;word-spacing:0px;fill:#000000;fill-opacity:1;stroke:none;stroke-width:0.02454327"
         id="text849">
        <path
           d="M 3.1011876,10.237781 V 9.8352086 H 3.2234208 V 10.868876 H 3.1011876 v -0.111604 q -0.03853,0.06643 -0.097654,0.09898 -0.058459,0.03189 -0.1408339,0.03189 -0.1348552,0 -0.219887,-0.107618 -0.084367,-0.107618 -0.084367,-0.282996 0,-0.175378 0.084367,-0.282997 0.085032,-0.107618 0.219887,-0.107618 0.082375,0 0.1408339,0.03255 0.059124,0.03189 0.097654,0.09832 z m -0.416523,0.259746 q 0,0.134855 0.055138,0.211915 0.055802,0.0764 0.1527915,0.0764 0.096989,0 0.1527916,-0.0764 0.055802,-0.07706 0.055802,-0.211915 0,-0.134855 -0.055802,-0.211251 -0.055802,-0.07706 -0.1527916,-0.07706 -0.096989,0 -0.1527915,0.07706 -0.055138,0.0764 -0.055138,0.211251 z"
           style="stroke-width:0.02454327"
           id="path925" />
        <path
           d="m 3.4751947,10.124848 h 0.1222332 v 0.744028 H 3.4751947 Z m 0,-0.2896394 H 3.5974279 V 9.9899931 H 3.4751947 Z"
           style="stroke-width:0.02454327"
           id="path927" />
        <path
           d="m 4.4889331,10.466304 v 0.05979 h -0.562007 q 0.00797,0.126219 0.075731,0.19265 0.068424,0.06577 0.1899929,0.06577 0.070417,0 0.1361838,-0.01727 0.066431,-0.01727 0.1315336,-0.05182 v 0.11559 q -0.065767,0.0279 -0.1348552,0.04252 -0.069088,0.01461 -0.1401696,0.01461 -0.1780353,0 -0.2823321,-0.103632 -0.1036325,-0.103633 -0.1036325,-0.280339 0,-0.182686 0.098318,-0.28964 0.098982,-0.107618 0.2663887,-0.107618 0.1501342,0 0.237159,0.09699 0.087689,0.09633 0.087689,0.262403 z m -0.1222332,-0.03587 q -0.00133,-0.100311 -0.056466,-0.160099 -0.054473,-0.05979 -0.1448198,-0.05979 -0.1023039,0 -0.1640848,0.05779 -0.061117,0.0578 -0.070417,0.162757 z"
           style="stroke-width:0.02454327"
           id="path929" />
        <path
           d="m 4.6364101,10.124848 h 0.5806077 v 0.111604 l -0.4597031,0.534771 h 0.4597031 v 0.09765 H 4.6198023 v -0.111604 l 0.4597032,-0.53477 H 4.6364101 Z"
           style="stroke-width:0.02454327"
           id="path931" />
        <path
           d="m 5.9836328,10.267675 q 0.045837,-0.08237 0.1096113,-0.121569 0.063774,-0.03919 0.1501343,-0.03919 0.1162544,0 0.1793639,0.08171 0.06311,0.08105 0.06311,0.23118 v 0.449074 H 6.3629543 v -0.445088 q 0,-0.106954 -0.037866,-0.15877 -0.037866,-0.05182 -0.1155901,-0.05182 -0.094996,0 -0.1501343,0.06311 -0.055138,0.06311 -0.055138,0.172057 v 0.420508 H 5.8813289 v -0.445088 q 0,-0.107618 -0.037866,-0.15877 -0.037866,-0.05182 -0.1169187,-0.05182 -0.093668,0 -0.1488057,0.06377 -0.055138,0.06311 -0.055138,0.171393 v 0.420508 H 5.3997035 V 10.124848 H 5.522601 v 0.11559 q 0.041852,-0.06842 0.100311,-0.100975 0.058459,-0.03255 0.1388409,-0.03255 0.081046,0 0.1375124,0.04119 0.057131,0.04119 0.084367,0.119576 z"
           style="stroke-width:0.02454327"
           id="path933" />
        <path
           d="m 7.0684524,10.494869 q -0.1481414,0 -0.2052721,0.03388 -0.057131,0.03388 -0.057131,0.11559 0,0.0651 0.042516,0.103633 0.04318,0.03787 0.1169187,0.03787 0.1016396,0 0.1627562,-0.07175 0.061781,-0.07241 0.061781,-0.191986 v -0.02724 z m 0.2438021,-0.05049 v 0.424494 H 7.1900213 v -0.112932 q -0.041852,0.06776 -0.1042968,0.100311 -0.062445,0.03189 -0.1527916,0.03189 -0.1142614,0 -0.1820212,-0.06377 -0.067095,-0.06444 -0.067095,-0.172057 0,-0.125555 0.083703,-0.189329 0.084367,-0.06377 0.2511096,-0.06377 h 0.1713922 v -0.01196 q 0,-0.08437 -0.055802,-0.130205 -0.055138,-0.0465 -0.1554488,-0.0465 -0.063774,0 -0.1242261,0.01528 -0.060452,0.01528 -0.1162545,0.04584 v -0.112933 q 0.067095,-0.02591 0.130205,-0.03853 0.06311,-0.01329 0.1228975,-0.01329 0.1614276,0 0.2411449,0.0837 0.079717,0.0837 0.079717,0.253767 z"
           style="stroke-width:0.02454327"
           id="path935" />
        <path
           d="m 8.1001276,10.153414 v 0.114261 q -0.051816,-0.02857 -0.1042968,-0.04252 -0.051816,-0.01461 -0.1049611,-0.01461 -0.1189117,0 -0.1846785,0.07573 -0.065767,0.07507 -0.065767,0.211251 0,0.136183 0.065767,0.211915 0.065767,0.07507 0.1846785,0.07507 0.053145,0 0.1049611,-0.01395 0.052481,-0.01461 0.1042968,-0.04318 v 0.112933 q -0.051152,0.02392 -0.1062897,0.03587 -0.054474,0.01196 -0.1162544,0.01196 -0.1680707,0 -0.267053,-0.105625 -0.098982,-0.105625 -0.098982,-0.284989 0,-0.182022 0.099647,-0.286318 0.1003109,-0.104297 0.2743604,-0.104297 0.056466,0 0.1102756,0.01196 0.053809,0.01129 0.1042968,0.03454 z"
           style="stroke-width:0.02454327"
           id="path937" />
        <path
           d="m 8.3140355,10.124848 h 0.1222332 v 0.744028 H 8.3140355 Z m 0,-0.2896394 H 8.4362687 V 9.9899931 H 8.3140355 Z"
           style="stroke-width:0.02454327"
           id="path939" />
        <path
           d="m 8.9796753,10.210544 q -0.098318,0 -0.1554488,0.07706 -0.057131,0.0764 -0.057131,0.209923 0,0.133526 0.056466,0.210586 0.057131,0.0764 0.1561131,0.0764 0.097654,0 0.1547844,-0.07706 0.057131,-0.07706 0.057131,-0.209922 0,-0.132198 -0.057131,-0.209258 -0.057131,-0.07772 -0.1547844,-0.07772 z m 0,-0.103632 q 0.1594346,0 0.2504452,0.103632 0.091011,0.103633 0.091011,0.286983 0,0.182685 -0.091011,0.286982 -0.091011,0.103632 -0.2504452,0.103632 -0.160099,0 -0.2511096,-0.103632 -0.090346,-0.104297 -0.090346,-0.286982 0,-0.18335 0.090346,-0.286983 0.091011,-0.103632 0.2511096,-0.103632 z M 9.0720145,9.7807351 H 9.2042124 L 8.987647,10.030516 H 8.8860074 Z"
           style="stroke-width:0.02454327"
           id="path941" />
        <path
           d="m 10.141555,10.419802 v 0.449074 h -0.122233 v -0.445088 q 0,-0.105625 -0.041188,-0.158106 -0.041187,-0.05248 -0.1235618,-0.05248 -0.098982,0 -0.1561131,0.06311 -0.057131,0.06311 -0.057131,0.172057 v 0.420508 H 9.5184312 v -0.744028 h 0.1228975 v 0.11559 q 0.043844,-0.0671 0.1029682,-0.100311 0.059788,-0.03322 0.1375123,-0.03322 0.1282118,0 0.1939788,0.07972 0.06577,0.07905 0.06577,0.233173 z"
           style="stroke-width:0.02454327"
           id="path943" />
      </g>
    </g>
  </g>
</svg>
