<?xml version="1.0" encoding="UTF-8" standalone="no"?>
<!-- Created with Inkscape (http://www.inkscape.org/) -->

<svg
   xmlns:dc="http://purl.org/dc/elements/1.1/"
   xmlns:cc="http://creativecommons.org/ns#"
   xmlns:rdf="http://www.w3.org/1999/02/22-rdf-syntax-ns#"
   xmlns:svg="http://www.w3.org/2000/svg"
   xmlns="http://www.w3.org/2000/svg"
   xmlns:sodipodi="http://sodipodi.sourceforge.net/DTD/sodipodi-0.dtd"
   xmlns:inkscape="http://www.inkscape.org/namespaces/inkscape"
   width="48"
   height="48"
   viewBox="0 0 12.7 12.7"
   version="1.1"
   id="svg827"
   inkscape:version="0.92.3 (2405546, 2018-03-11)"
   sodipodi:docname="inter.svg">
  <defs
     id="defs821" />
  <sodipodi:namedview
     id="base"
     pagecolor="#ffffff"
     bordercolor="#666666"
     borderopacity="1.0"
     inkscape:pageopacity="0.0"
     inkscape:pageshadow="2"
     inkscape:zoom="15.839192"
     inkscape:cx="35.07021"
     inkscape:cy="19.962027"
     inkscape:document-units="mm"
     inkscape:current-layer="text1080"
     showgrid="false"
     units="px"
     inkscape:window-width="1920"
     inkscape:window-height="1057"
     inkscape:window-x="-8"
     inkscape:window-y="-8"
     inkscape:window-maximized="1"
     inkscape:pagecheckerboard="true" />
  <metadata
     id="metadata824">
    <rdf:RDF>
      <cc:Work
         rdf:about="">
        <dc:format>image/svg+xml</dc:format>
        <dc:type
           rdf:resource="http://purl.org/dc/dcmitype/StillImage" />
        <dc:title></dc:title>
      </cc:Work>
    </rdf:RDF>
  </metadata>
  <g
     inkscape:label="Capa 1"
     inkscape:groupmode="layer"
     id="layer1"
     transform="translate(0,-284.3)" />
  <g
     inkscape:groupmode="layer"
     id="layer2"
     inkscape:label="Capa 2">
    <path
       style="opacity:1;fill:none;fill-opacity:1;stroke:#000000;stroke-width:0.28099999;stroke-miterlimit:4;stroke-dasharray:none;stroke-dashoffset:0;stroke-opacity:1"
       d="M 0.76225007,0.76225585 H 11.93775 V 11.937756 H 0.76225007 Z"
       id="rect1372" />
    <g
       aria-label="Micrófono"
       style="font-style:normal;font-weight:normal;font-size:2.11666656px;line-height:1.25;font-family:sans-serif;letter-spacing:0px;word-spacing:0px;fill:#000000;fill-opacity:1;stroke:none;stroke-width:0.26458332"
       id="text1080">
      <g
         aria-label="f(n/k)"
         style="font-style:normal;font-weight:normal;font-size:3.22482324px;line-height:1.25;font-family:sans-serif;letter-spacing:0px;word-spacing:0px;fill:#000000;fill-opacity:1;stroke:none;stroke-width:0.05817507"
         id="text845">
        <path
           d="m 4.004445,4.0555054 v 0.240917 H 3.7273118 q -0.1558875,0 -0.2172977,0.062985 -0.059835,0.062985 -0.059835,0.2267454 V 4.74204 h 0.47711 v 0.2251708 h -0.47711 V 6.5056152 H 3.1588737 V 4.9672108 H 2.8817405 V 4.74204 H 3.1588737 V 4.6192196 q 0,-0.2944541 0.136992,-0.4282968 0.136992,-0.1354174 0.4345953,-0.1354174 z"
           style="stroke-width:0.05817507"
           id="path989" />
        <path
           d="M 4.9413444,4.0586546 Q 4.7303452,4.4208174 4.6279949,4.7751071 4.5256445,5.1293967 4.5256445,5.4931341 q 0,0.3637374 0.1023504,0.7211763 0.103925,0.3558643 0.3133495,0.7164524 H 4.6894051 Q 4.453212,6.560727 4.3351154,6.2032881 4.2185935,5.8458492 4.2185935,5.4931341 q 0,-0.3511404 0.1165219,-0.7070047 0.116522,-0.3558643 0.3542897,-0.7274748 z"
           style="stroke-width:0.05817507"
           id="path991" />
        <path
           d="M 6.3515748,4.5237976 V 5.215686 H 6.1632501 V 4.5299386 q 0,-0.162737 -0.063457,-0.2435938 -0.063457,-0.080857 -0.1903716,-0.080857 -0.1525021,0 -0.2405234,0.097233 -0.088021,0.097233 -0.088021,0.2650874 V 5.215686 H 5.3915285 V 4.0693621 h 0.1893481 v 0.1780896 q 0.067551,-0.1033739 0.1586431,-0.1545491 0.092115,-0.051175 0.2118652,-0.051175 0.1975362,0 0.298863,0.1228204 0.1013269,0.1217969 0.1013269,0.3592497 z"
           style="font-size:64.99999762%;baseline-shift:super"
           id="path993" />
        <path
           d="M 7.3505141,4.1547065 H 7.6181996 L 6.7993969,6.8047932 H 6.5317113 Z"
           style="stroke-width:0.05817507"
           id="path995" />
        <path
           d="M 7.8117207,5.5580084 H 8.0010689 V 6.4986081 L 8.5629723,6.004256 H 8.8034956 L 8.1955346,6.5405718 8.8290832,7.1505799 H 8.5834424 L 8.0010689,6.5907235 V 7.1505799 H 7.8117207 Z"
           style="font-size:64.99999762%;baseline-shift:sub"
           id="path997" />
        <path
           d="m 9.0955088,4.0586546 h 0.2519393 q 0.2361931,0.3716105 0.352715,0.7274748 0.1180966,0.3558643 0.1180966,0.7070047 0,0.3527151 -0.1180966,0.710154 Q 9.5836412,6.560727 9.3474481,6.9307628 H 9.0955088 Q 9.3049333,6.5701747 9.4072837,6.2143104 9.5112086,5.8568715 9.5112086,5.4931341 q 0,-0.3637374 -0.1039249,-0.718027 Q 9.3049333,4.4208174 9.0955088,4.0586546 Z"
           style="stroke-width:0.05817507"
           id="path999" />
      </g>
      <g
         aria-label="interpolación"
         style="font-style:normal;font-weight:normal;font-size:1.3605088px;line-height:1.25;font-family:sans-serif;letter-spacing:0px;word-spacing:0px;fill:#000000;fill-opacity:1;stroke:none;stroke-width:0.02454327"
         id="text849">
        <path
           d="m 2.0216822,10.124848 h 0.1222332 v 0.744028 H 2.0216822 Z m 0,-0.2896394 H 2.1439154 V 9.9899931 H 2.0216822 Z"
           style="stroke-width:0.02454327"
           id="path962" />
        <path
           d="m 3.0174843,10.419802 v 0.449074 H 2.8952511 v -0.445088 q 0,-0.105625 -0.041187,-0.158106 -0.041187,-0.05248 -0.1235619,-0.05248 -0.098982,0 -0.156113,0.06311 -0.057131,0.06311 -0.057131,0.172057 v 0.420508 H 2.3943606 v -0.744028 h 0.1228975 v 0.11559 q 0.043845,-0.0671 0.1029682,-0.100311 0.059788,-0.03322 0.1375124,-0.03322 0.128212,0 0.1939788,0.07972 0.065767,0.07905 0.065767,0.233173 z"
           style="stroke-width:0.02454327"
           id="path964" />
        <path
           d="m 3.3835196,9.9135973 v 0.2112507 h 0.2517738 v 0.095 H 3.3835196 v 0.403901 q 0,0.09101 0.024579,0.116918 0.025244,0.02591 0.1016396,0.02591 h 0.1255547 v 0.102303 H 3.5097387 q -0.1414983,0 -0.1953074,-0.05248 -0.053809,-0.05314 -0.053809,-0.19265 v -0.403901 h -0.089682 v -0.095 h 0.089682 V 9.9135973 Z"
           style="stroke-width:0.02454327"
           id="path966" />
        <path
           d="m 4.4331309,10.466304 v 0.05979 H 3.8711238 q 0.00797,0.126219 0.075732,0.19265 0.068424,0.06577 0.1899929,0.06577 0.070417,0 0.1361838,-0.01727 0.066431,-0.01727 0.1315335,-0.05182 v 0.11559 q -0.065767,0.0279 -0.1348551,0.04252 -0.069088,0.01461 -0.1401696,0.01461 -0.1780353,0 -0.2823322,-0.103632 -0.1036325,-0.103633 -0.1036325,-0.280339 0,-0.182686 0.098318,-0.28964 0.098982,-0.107618 0.2663886,-0.107618 0.1501343,0 0.2371591,0.09699 0.087689,0.09633 0.087689,0.262403 z m -0.1222332,-0.03587 q -0.00133,-0.100311 -0.056466,-0.160099 -0.054474,-0.05979 -0.1448198,-0.05979 -0.1023039,0 -0.1640848,0.05779 -0.061117,0.0578 -0.070417,0.162757 z"
           style="stroke-width:0.02454327"
           id="path968" />
        <path
           d="m 5.0648905,10.23911 q -0.020594,-0.01196 -0.045173,-0.01727 -0.023915,-0.006 -0.053145,-0.006 -0.1036325,0 -0.1594346,0.06776 -0.055138,0.0671 -0.055138,0.193314 v 0.391943 H 4.6291026 v -0.744028 h 0.1228975 v 0.11559 q 0.03853,-0.06776 0.1003109,-0.100311 0.061781,-0.03322 0.1501343,-0.03322 0.012622,0 0.027901,0.002 0.015279,0.0013 0.03388,0.0046 z"
           style="stroke-width:0.02454327"
           id="path970" />
        <path
           d="m 5.3126786,10.757272 v 0.394601 H 5.189781 v -1.027025 h 0.1228976 v 0.112933 q 0.03853,-0.06643 0.096989,-0.09832 0.059124,-0.03255 0.1408339,-0.03255 0.1355194,0 0.2198869,0.107618 0.085032,0.107619 0.085032,0.282997 0,0.175378 -0.085032,0.282996 -0.084367,0.107618 -0.2198869,0.107618 -0.08171,0 -0.1408339,-0.03189 -0.058459,-0.03255 -0.096989,-0.09898 z m 0.4158586,-0.259745 q 0,-0.134855 -0.055802,-0.211251 -0.055138,-0.07706 -0.1521272,-0.07706 -0.096989,0 -0.1527915,0.07706 -0.055138,0.0764 -0.055138,0.211251 0,0.134855 0.055138,0.211915 0.055802,0.0764 0.1527915,0.0764 0.096989,0 0.1521272,-0.0764 0.055802,-0.07706 0.055802,-0.211915 z"
           style="stroke-width:0.02454327"
           id="path972" />
        <path
           d="m 6.3463462,10.210544 q -0.098318,0 -0.1554487,0.07706 -0.057131,0.0764 -0.057131,0.209923 0,0.133526 0.056466,0.210586 0.057131,0.0764 0.156113,0.0764 0.097654,0 0.1547845,-0.07706 0.057131,-0.07706 0.057131,-0.209922 0,-0.132198 -0.057131,-0.209258 -0.057131,-0.07772 -0.1547845,-0.07772 z m 0,-0.103632 q 0.1594347,0 0.2504453,0.103632 0.091011,0.103633 0.091011,0.286983 0,0.182685 -0.091011,0.286982 -0.091011,0.103632 -0.2504453,0.103632 -0.1600989,0 -0.2511095,-0.103632 -0.090346,-0.104297 -0.090346,-0.286982 0,-0.18335 0.090346,-0.286983 0.091011,-0.103632 0.2511095,-0.103632 z"
           style="stroke-width:0.02454327"
           id="path974" />
        <path
           d="M 6.8897528,9.8352086 H 7.011986 V 10.868876 H 6.8897528 Z"
           style="stroke-width:0.02454327"
           id="path976" />
        <path
           d="m 7.6052159,10.494869 q -0.1481413,0 -0.2052721,0.03388 -0.057131,0.03388 -0.057131,0.11559 0,0.0651 0.042516,0.103633 0.04318,0.03787 0.1169187,0.03787 0.1016396,0 0.1627562,-0.07175 0.061781,-0.07241 0.061781,-0.191986 v -0.02724 z m 0.2438021,-0.05049 v 0.424494 H 7.7267848 v -0.112932 q -0.041852,0.06776 -0.1042968,0.100311 -0.062445,0.03189 -0.1527915,0.03189 -0.1142615,0 -0.1820212,-0.06377 -0.067095,-0.06444 -0.067095,-0.172057 0,-0.125555 0.083703,-0.189329 0.084367,-0.06377 0.2511095,-0.06377 h 0.1713922 v -0.01196 q 0,-0.08437 -0.055802,-0.130205 -0.055138,-0.0465 -0.1554488,-0.0465 -0.063774,0 -0.1242261,0.01528 -0.060452,0.01528 -0.1162544,0.04584 v -0.112933 q 0.067095,-0.02591 0.1302049,-0.03853 0.06311,-0.01329 0.1228976,-0.01329 0.1614275,0 0.2411448,0.0837 0.079717,0.0837 0.079717,0.253767 z"
           style="stroke-width:0.02454327"
           id="path978" />
        <path
           d="m 8.6368907,10.153414 v 0.114261 q -0.051816,-0.02857 -0.1042968,-0.04252 -0.051816,-0.01461 -0.1049611,-0.01461 -0.1189117,0 -0.1846785,0.07573 -0.065767,0.07507 -0.065767,0.211251 0,0.136183 0.065767,0.211915 0.065767,0.07507 0.1846785,0.07507 0.053145,0 0.1049611,-0.01395 0.05248,-0.01461 0.1042968,-0.04318 v 0.112933 q -0.051152,0.02392 -0.1062898,0.03587 -0.054473,0.01196 -0.1162544,0.01196 -0.1680706,0 -0.267053,-0.105625 -0.098982,-0.105625 -0.098982,-0.284989 0,-0.182022 0.099647,-0.286318 0.100311,-0.104297 0.2743605,-0.104297 0.056466,0 0.1102756,0.01196 0.053809,0.01129 0.1042968,0.03454 z"
           style="stroke-width:0.02454327"
           id="path980" />
        <path
           d="m 8.8507985,10.124848 h 0.1222332 v 0.744028 H 8.8507985 Z m 0,-0.2896394 H 8.9730317 V 9.9899931 H 8.8507985 Z"
           style="stroke-width:0.02454327"
           id="path982" />
        <path
           d="m 9.5164383,10.210544 q -0.098318,0 -0.1554487,0.07706 -0.057131,0.0764 -0.057131,0.209923 0,0.133526 0.056466,0.210586 0.057131,0.0764 0.156113,0.0764 0.097654,0 0.1547845,-0.07706 0.057131,-0.07706 0.057131,-0.209922 0,-0.132198 -0.057131,-0.209258 -0.057131,-0.07772 -0.1547845,-0.07772 z m 0,-0.103632 q 0.1594347,0 0.2504453,0.103632 0.091011,0.103633 0.091011,0.286983 0,0.182685 -0.091011,0.286982 -0.091011,0.103632 -0.2504453,0.103632 -0.1600989,0 -0.2511095,-0.103632 -0.090346,-0.104297 -0.090346,-0.286982 0,-0.18335 0.090346,-0.286983 0.091011,-0.103632 0.2511095,-0.103632 z M 9.6087776,9.7807351 H 9.7409754 L 9.5244101,10.030516 H 9.4227705 Z"
           style="stroke-width:0.02454327"
           id="path984" />
        <path
           d="m 10.678318,10.419802 v 0.449074 h -0.122233 v -0.445088 q 0,-0.105625 -0.04119,-0.158106 -0.04119,-0.05248 -0.123561,-0.05248 -0.09898,0 -0.156114,0.06311 -0.05713,0.06311 -0.05713,0.172057 v 0.420508 h -0.122898 v -0.744028 h 0.122898 v 0.11559 q 0.04384,-0.0671 0.102968,-0.100311 0.05979,-0.03322 0.137512,-0.03322 0.128212,0 0.193979,0.07972 0.06577,0.07905 0.06577,0.233173 z"
           style="stroke-width:0.02454327"
           id="path986" />
      </g>
    </g>
  </g>
</svg>
