<?xml version="1.0" encoding="UTF-8" standalone="no"?>
<!-- Created with Inkscape (http://www.inkscape.org/) -->

<svg
   xmlns:dc="http://purl.org/dc/elements/1.1/"
   xmlns:cc="http://creativecommons.org/ns#"
   xmlns:rdf="http://www.w3.org/1999/02/22-rdf-syntax-ns#"
   xmlns:svg="http://www.w3.org/2000/svg"
   xmlns="http://www.w3.org/2000/svg"
   xmlns:sodipodi="http://sodipodi.sourceforge.net/DTD/sodipodi-0.dtd"
   xmlns:inkscape="http://www.inkscape.org/namespaces/inkscape"
   width="48"
   height="48"
   viewBox="0 0 12.7 12.7"
   version="1.1"
   id="svg827"
   inkscape:version="0.92.4 (5da689c313, 2019-01-14)"
   sodipodi:docname="micButU.svg">
  <defs
     id="defs821" />
  <sodipodi:namedview
     id="base"
     pagecolor="#ffffff"
     bordercolor="#666666"
     borderopacity="1.0"
     inkscape:pageopacity="0.0"
     inkscape:pageshadow="2"
     inkscape:zoom="3.959798"
     inkscape:cx="19.92687"
     inkscape:cy="24.617064"
     inkscape:document-units="mm"
     inkscape:current-layer="layer2"
     showgrid="false"
     units="px"
     inkscape:window-width="1366"
     inkscape:window-height="745"
     inkscape:window-x="-8"
     inkscape:window-y="-8"
     inkscape:window-maximized="1"
     inkscape:pagecheckerboard="true" />
  <metadata
     id="metadata824">
    <rdf:RDF>
      <cc:Work
         rdf:about="">
        <dc:format>image/svg+xml</dc:format>
        <dc:type
           rdf:resource="http://purl.org/dc/dcmitype/StillImage" />
        <dc:title></dc:title>
      </cc:Work>
    </rdf:RDF>
  </metadata>
  <g
     inkscape:label="Capa 1"
     inkscape:groupmode="layer"
     id="layer1"
     transform="translate(0,-284.3)" />
  <g
     inkscape:groupmode="layer"
     id="layer2"
     inkscape:label="Capa 2">
    <rect
       style="opacity:0.5;fill:none;fill-opacity:1;stroke:#000000;stroke-width:0.28099999;stroke-miterlimit:4;stroke-dasharray:none;stroke-dashoffset:0;stroke-opacity:1"
       id="rect1372"
       width="11.1755"
       height="11.1755"
       x="0.76225007"
       y="0.76225585" />
    <g
       id="g1076"
       transform="matrix(0.73516788,0,0,0.73516788,1.6816839,0.45548064)"
       style="opacity:0.5">
      <g
         style="fill:#000000;fill-opacity:1"
         transform="matrix(0.15965916,0,0,0.15965916,1.7198844,1.7198844)"
         id="g968">
        <g
           style="fill:#000000;fill-opacity:1"
           id="g880">
          <path
             style="fill:#000000;fill-opacity:1"
             inkscape:connector-curvature="0"
             d="m 44,28 c -0.552,0 -1,0.447 -1,1 v 6 C 43,42.72 36.72,49 29,49 21.28,49 15,42.72 15,35 v -6 c 0,-0.553 -0.448,-1 -1,-1 -0.552,0 -1,0.447 -1,1 v 6 c 0,8.485 6.644,15.429 15,15.949 V 56 h -5 c -0.552,0 -1,0.447 -1,1 0,0.553 0.448,1 1,1 h 12 c 0.552,0 1,-0.447 1,-1 0,-0.553 -0.448,-1 -1,-1 H 30 V 50.949 C 38.356,50.429 45,43.484 45,35 v -6 c 0,-0.553 -0.448,-1 -1,-1 z"
             id="path814" />
          <path
             style="fill:#000000;fill-opacity:1"
             inkscape:connector-curvature="0"
             d="m 29,46 c 6.065,0 11,-4.935 11,-11 V 11 C 40,4.935 35.065,0 29,0 22.935,0 18,4.935 18,11 v 24 c 0,6.065 4.935,11 11,11 z M 22.469,4.826 C 22.625,4.927 22.8,5 23,5 23.552,5 24,4.552 24,4 24,3.852 23.964,3.714 23.906,3.588 25.356,2.589 27.11,2 29,2 30.89,2 32.644,2.589 34.094,3.588 34.036,3.714 34,3.852 34,4 c 0,0.552 0.448,1 1,1 0.2,0 0.375,-0.073 0.531,-0.174 0.59,0.623 1.09,1.329 1.484,2.1 C 37.013,6.952 37,6.974 37,7 37,7.319 37.159,7.591 37.392,7.774 37.779,8.777 38,9.862 38,11 v 1 c -0.552,0 -1,0.448 -1,1 0,0.552 0.448,1 1,1 v 4 c -0.552,0 -1,0.448 -1,1 0,0.552 0.448,1 1,1 v 4 c -0.552,0 -1,0.448 -1,1 0,0.552 0.448,1 1,1 v 4 c -0.552,0 -1,0.448 -1,1 0,0.552 0.448,1 1,1 v 3 c 0,0.343 -0.023,0.679 -0.061,1.012 C 37.417,36.045 37,36.469 37,37 c 0,0.377 0.217,0.693 0.525,0.864 -0.766,2.272 -2.413,4.137 -4.536,5.192 C 32.99,43.036 33,43.02 33,43 c 0,-0.552 -0.448,-1 -1,-1 -0.552,0 -1,0.448 -1,1 0,0.271 0.11,0.515 0.285,0.695 C 30.554,43.887 29.791,44 29,44 28.209,44 27.446,43.887 26.715,43.695 26.89,43.515 27,43.271 27,43 c 0,-0.552 -0.448,-1 -1,-1 -0.552,0 -1,0.448 -1,1 0,0.02 0.01,0.036 0.011,0.056 C 22.888,42 21.24,40.136 20.475,37.864 20.783,37.693 21,37.377 21,37 21,36.469 20.583,36.045 20.061,36.012 20.023,35.679 20,35.343 20,35 v -3 c 0.552,0 1,-0.448 1,-1 0,-0.552 -0.448,-1 -1,-1 v -4 c 0.552,0 1,-0.448 1,-1 0,-0.552 -0.448,-1 -1,-1 v -4 c 0.552,0 1,-0.448 1,-1 0,-0.552 -0.448,-1 -1,-1 v -4 c 0.552,0 1,-0.448 1,-1 0,-0.552 -0.448,-1 -1,-1 V 11 C 20,9.862 20.221,8.777 20.608,7.774 20.841,7.591 21,7.319 21,7 21,6.974 20.987,6.952 20.985,6.926 c 0.394,-0.771 0.894,-1.477 1.484,-2.1 z"
             id="path816" />
          <circle
             style="fill:#000000;fill-opacity:1"
             cx="29"
             cy="4"
             r="1"
             id="circle818" />
          <circle
             style="fill:#000000;fill-opacity:1"
             cx="26"
             cy="7"
             r="1"
             id="circle820" />
          <circle
             style="fill:#000000;fill-opacity:1"
             cx="26"
             cy="13"
             r="1"
             id="circle822" />
          <circle
             style="fill:#000000;fill-opacity:1"
             cx="23"
             cy="10"
             r="1"
             id="circle824" />
          <circle
             style="fill:#000000;fill-opacity:1"
             cx="29"
             cy="10"
             r="1"
             id="circle826" />
          <circle
             style="fill:#000000;fill-opacity:1"
             cx="23"
             cy="16"
             r="1"
             id="circle828" />
          <circle
             style="fill:#000000;fill-opacity:1"
             cx="29"
             cy="16"
             r="1"
             id="circle830" />
          <circle
             style="fill:#000000;fill-opacity:1"
             cx="32"
             cy="7"
             r="1"
             id="circle832" />
          <circle
             style="fill:#000000;fill-opacity:1"
             cx="32"
             cy="13"
             r="1"
             id="circle834" />
          <circle
             style="fill:#000000;fill-opacity:1"
             cx="35"
             cy="10"
             r="1"
             id="circle836" />
          <circle
             style="fill:#000000;fill-opacity:1"
             cx="35"
             cy="16"
             r="1"
             id="circle838" />
          <circle
             style="fill:#000000;fill-opacity:1"
             cx="26"
             cy="19"
             r="1"
             id="circle840" />
          <circle
             style="fill:#000000;fill-opacity:1"
             cx="26"
             cy="25"
             r="1"
             id="circle842" />
          <circle
             style="fill:#000000;fill-opacity:1"
             cx="23"
             cy="22"
             r="1"
             id="circle844" />
          <circle
             style="fill:#000000;fill-opacity:1"
             cx="29"
             cy="22"
             r="1"
             id="circle846" />
          <circle
             style="fill:#000000;fill-opacity:1"
             cx="23"
             cy="28"
             r="1"
             id="circle848" />
          <circle
             style="fill:#000000;fill-opacity:1"
             cx="29"
             cy="28"
             r="1"
             id="circle850" />
          <circle
             style="fill:#000000;fill-opacity:1"
             cx="32"
             cy="19"
             r="1"
             id="circle852" />
          <circle
             style="fill:#000000;fill-opacity:1"
             cx="32"
             cy="25"
             r="1"
             id="circle854" />
          <circle
             style="fill:#000000;fill-opacity:1"
             cx="35"
             cy="22"
             r="1"
             id="circle856" />
          <circle
             style="fill:#000000;fill-opacity:1"
             cx="35"
             cy="28"
             r="1"
             id="circle858" />
          <circle
             style="fill:#000000;fill-opacity:1"
             cx="26"
             cy="31"
             r="1"
             id="circle860" />
          <circle
             style="fill:#000000;fill-opacity:1"
             cx="26"
             cy="37"
             r="1"
             id="circle862" />
          <circle
             style="fill:#000000;fill-opacity:1"
             cx="23"
             cy="34"
             r="1"
             id="circle864" />
          <circle
             style="fill:#000000;fill-opacity:1"
             cx="29"
             cy="34"
             r="1"
             id="circle866" />
          <circle
             style="fill:#000000;fill-opacity:1"
             cx="23"
             cy="40"
             r="1"
             id="circle868" />
          <circle
             style="fill:#000000;fill-opacity:1"
             cx="29"
             cy="40"
             r="1"
             id="circle870" />
          <circle
             style="fill:#000000;fill-opacity:1"
             cx="32"
             cy="31"
             r="1"
             id="circle872" />
          <circle
             style="fill:#000000;fill-opacity:1"
             cx="32"
             cy="37"
             r="1"
             id="circle874" />
          <circle
             style="fill:#000000;fill-opacity:1"
             cx="35"
             cy="34"
             r="1"
             id="circle876" />
          <circle
             style="fill:#000000;fill-opacity:1"
             cx="35"
             cy="40"
             r="1"
             id="circle878" />
        </g>
        <g
           style="fill:#000000;fill-opacity:1"
           id="g882" />
        <g
           style="fill:#000000;fill-opacity:1"
           id="g884" />
        <g
           style="fill:#000000;fill-opacity:1"
           id="g886" />
        <g
           style="fill:#000000;fill-opacity:1"
           id="g888" />
        <g
           style="fill:#000000;fill-opacity:1"
           id="g890" />
        <g
           style="fill:#000000;fill-opacity:1"
           id="g892" />
        <g
           style="fill:#000000;fill-opacity:1"
           id="g894" />
        <g
           style="fill:#000000;fill-opacity:1"
           id="g896" />
        <g
           style="fill:#000000;fill-opacity:1"
           id="g898" />
        <g
           style="fill:#000000;fill-opacity:1"
           id="g900" />
        <g
           style="fill:#000000;fill-opacity:1"
           id="g902" />
        <g
           style="fill:#000000;fill-opacity:1"
           id="g904" />
        <g
           style="fill:#000000;fill-opacity:1"
           id="g906" />
        <g
           style="fill:#000000;fill-opacity:1"
           id="g908" />
        <g
           style="fill:#000000;fill-opacity:1"
           id="g910" />
      </g>
      <path
         transform="scale(0.26458333)"
         inkscape:connector-curvature="0"
         id="path970"
         d="m 23.203239,32.959821 c -0.507505,-0.08236 -0.507636,-0.08245 -0.428166,-0.29299 0.235943,-0.625084 -0.554499,-1.125191 -1.028785,-0.650906 -0.101501,0.101501 -0.184547,0.229349 -0.184547,0.284106 0,0.05476 -0.02335,0.09956 -0.05189,0.09956 -0.101949,0 -0.995265,-0.646934 -1.289716,-0.934004 -0.313455,-0.305599 -0.400352,-0.469349 -0.159572,-0.300699 0.3758,0.26322 0.93297,-0.03585 0.93297,-0.500791 0,-0.295921 -0.08506,-0.449664 -0.314409,-0.568263 -0.274969,-0.142192 -0.480748,-0.116445 -0.710531,0.0889 -0.180182,0.161022 -0.205396,0.221733 -0.199942,0.481423 l 0.0062,0.297165 -0.118208,-0.149967 c -0.169448,-0.214975 -0.548783,-0.891895 -0.663596,-1.18418 -0.09275,-0.236122 -0.09114,-0.256584 0.03053,-0.387179 0.07065,-0.07584 0.145518,-0.205861 0.166371,-0.288947 0.0557,-0.221911 -0.117411,-0.580751 -0.323966,-0.671563 -0.0973,-0.04278 -0.197774,-0.106763 -0.223285,-0.142194 -0.02551,-0.03543 -0.04682,-0.568707 -0.04735,-1.185058 -8.19e-4,-0.949172 0.01337,-1.120638 0.09274,-1.120638 0.05154,0 0.18326,-0.08002 0.292714,-0.177814 0.163782,-0.146339 0.199009,-0.22502 0.199009,-0.444492 0,-0.297726 -0.173246,-0.539339 -0.43358,-0.604678 l -0.151849,-0.03811 v -1.155093 -1.155093 l 0.224461,-0.107037 c 0.255496,-0.121838 0.413456,-0.42172 0.362512,-0.688218 -0.04013,-0.209939 -0.308707,-0.490822 -0.469313,-0.490822 -0.110662,0 -0.11766,-0.07135 -0.11766,-1.199556 0,-1.0364 0.01318,-1.199556 0.09692,-1.199556 0.183198,0 0.405888,-0.202695 0.467385,-0.42542 0.08839,-0.32012 -0.05078,-0.6244 -0.341065,-0.745688 l -0.223243,-0.09328 v -1.167142 c 0,-0.989855 0.01423,-1.167141 0.09371,-1.167141 0.05154,0 0.18326,-0.08002 0.292714,-0.177815 0.285867,-0.255421 0.285867,-0.65164 0,-0.907062 -0.109454,-0.0978 -0.245139,-0.177814 -0.30152,-0.177814 -0.09059,0 -0.09844,-0.08258 -0.0675,-0.710263 0.03859,-0.782664 0.224752,-1.607037 0.418554,-1.853417 0.06794,-0.08637 0.142973,-0.248035 0.166744,-0.359257 0.04026,-0.188368 0.454373,-0.8616293 0.70692,-1.1493028 0.08492,-0.096735 0.189839,-0.126317 0.447829,-0.1262691 0.290922,5.39e-5 0.357726,-0.024123 0.489292,-0.1770782 0.105198,-0.1222995 0.15237,-0.2539888 0.15237,-0.425366 0,-0.2229235 0.02704,-0.2652953 0.265278,-0.415688 1.515269,-0.9565477 3.726852,-0.9848724 5.365098,-0.068713 0.367464,0.2054974 0.410239,0.2491901 0.383074,0.391291 -0.07896,0.4130763 0.303524,0.7730464 0.746191,0.702261 0.232063,-0.037108 0.244784,-0.02864 0.533058,0.3548493 0.325366,0.4328318 0.535984,0.8113148 0.535984,0.9631698 0,0.05421 0.06906,0.204501 0.153465,0.333972 0.229238,0.351628 0.353024,0.903959 0.395101,1.762942 l 0.03772,0.769928 -0.16787,0.04213 c -0.429651,0.107835 -0.565069,0.711748 -0.233864,1.042951 0.101501,0.101502 0.229348,0.184548 0.284105,0.184548 0.08708,0 0.09956,0.146837 0.09956,1.171273 v 1.171273 l -0.185238,0.06457 c -0.407755,0.142145 -0.523672,0.717453 -0.205898,1.0219 0.09739,0.09331 0.225238,0.169648 0.284106,0.169648 0.09686,0 0.10703,0.113961 0.10703,1.199556 0,1.05019 -0.0124,1.199556 -0.09956,1.199556 -0.05476,0 -0.182604,0.08305 -0.284105,0.184548 -0.324961,0.32496 -0.227507,0.840307 0.191745,1.013967 l 0.191918,0.07949 v 1.159127 1.159126 l -0.158835,0.03986 c -0.421161,0.105705 -0.552388,0.713125 -0.224828,1.040684 0.101501,0.101502 0.229348,0.184547 0.284105,0.184547 0.08716,0 0.09956,0.149367 0.09956,1.199557 0,1.128209 -0.007,1.199556 -0.11766,1.199556 -0.06471,0 -0.19256,0.0749 -0.284105,0.166445 -0.213122,0.213122 -0.234075,0.636665 -0.04018,0.81214 0.158466,0.14341 0.157669,0.196399 -0.0087,0.575969 -0.138353,0.315723 -0.658447,1.160231 -0.714533,1.160231 -0.01719,0 -0.01425,-0.08506 0.0065,-0.189026 0.105251,-0.526255 -0.431963,-0.91817 -0.915689,-0.668026 -0.486816,0.251743 -0.382522,1.045669 0.1505,1.145664 0.131853,0.02474 0.294909,0.01281 0.384789,-0.02814 0.262597,-0.119648 0.251875,-0.08321 -0.07331,0.249105 -0.299241,0.305806 -1.175538,0.942518 -1.297174,0.942518 -0.03181,0 -0.05784,-0.0448 -0.05784,-0.09956 0,-0.05476 -0.08305,-0.182605 -0.184547,-0.284106 -0.466175,-0.466175 -1.239768,0.0186 -1.022815,0.640947 0.07749,0.222301 0.08565,0.217235 -0.49727,0.30871 -0.480243,0.07536 -1.028189,0.07328 -1.515229,-0.0058 z m 1.207169,-1.874468 c 0.268977,-0.240331 0.282808,-0.633749 0.03113,-0.885429 -0.244341,-0.24434 -0.682277,-0.239817 -0.896524,0.0093 -0.223602,0.259953 -0.210009,0.627251 0.03218,0.869436 0.249366,0.249366 0.558865,0.251867 0.833218,0.0067 z m -1.806564,-1.795238 c 0.109973,-0.0946 0.176895,-0.228889 0.200036,-0.40142 0.03001,-0.223709 0.0094,-0.287652 -0.150151,-0.466236 -0.155507,-0.174043 -0.228788,-0.206968 -0.460643,-0.206968 -0.229612,0 -0.30545,0.03328 -0.45353,0.199009 -0.245135,0.274353 -0.242634,0.583853 0.0067,0.833219 0.237124,0.237124 0.609754,0.255546 0.857556,0.0424 z m 3.655808,-0.0521 c 0.440715,-0.52376 -0.07437,-1.234564 -0.703992,-0.97149 -0.249802,0.104373 -0.431578,0.444193 -0.369632,0.691004 0.07425,0.295837 0.311209,0.474734 0.628812,0.474734 0.236679,0 0.307321,-0.03085 0.444812,-0.194248 z m -5.580531,-1.668874 c 0.229347,-0.1186 0.314409,-0.272342 0.314409,-0.568263 0,-0.676856 -0.988333,-0.828708 -1.200935,-0.184518 -0.184328,0.558517 0.363171,1.023418 0.886526,0.752781 z m 3.638247,-0.02626 c 0.53624,-0.326979 0.314971,-1.141072 -0.310141,-1.141072 -0.628929,0 -0.861939,0.866437 -0.313108,1.164277 0.232796,0.126334 0.387452,0.120575 0.623249,-0.02321 z m 3.770125,-0.139718 c 0.15555,-0.170856 0.175887,-0.23464 0.145957,-0.457783 -0.09791,-0.729961 -1.123258,-0.735698 -1.220487,-0.0068 -0.02655,0.199069 -0.0039,0.290259 0.107326,0.43132 0.277104,0.351549 0.665294,0.36491 0.967204,0.03329 z m -5.58789,-1.659531 c 0.426105,-0.220348 0.413324,-0.899568 -0.02065,-1.097298 -0.497355,-0.22661 -0.992832,0.164618 -0.891637,0.704036 0.07777,0.414523 0.510467,0.60105 0.912284,0.393262 z m 3.73895,-0.09458 c 0.306404,-0.306404 0.242471,-0.790247 -0.129861,-0.982788 -0.274543,-0.141971 -0.480672,-0.11651 -0.709097,0.08759 -0.169438,0.151394 -0.204749,0.228723 -0.204749,0.448403 0,0.21968 0.03531,0.29701 0.204749,0.448403 0.280276,0.250427 0.587515,0.249839 0.838958,-0.0016 z m -5.42957,-1.830901 c 0.488644,-0.488643 -0.04087,-1.249448 -0.682893,-0.981191 -0.249802,0.104373 -0.431578,0.444193 -0.369632,0.691004 0.120805,0.481327 0.701332,0.641381 1.052525,0.290187 z m 3.574933,0.08965 c 0.07452,-0.05219 0.167469,-0.19181 0.206561,-0.310258 0.160497,-0.486312 -0.303436,-0.954143 -0.787703,-0.79432 -0.655465,0.216323 -0.504479,1.199476 0.184208,1.199476 0.143797,0 0.322417,-0.0427 0.396934,-0.0949 z m 3.649498,-0.04725 c 0.109973,-0.09459 0.176895,-0.228889 0.200036,-0.40142 0.03001,-0.223709 0.0094,-0.287652 -0.150151,-0.466236 -0.155508,-0.174043 -0.228788,-0.206968 -0.460643,-0.206968 -0.229612,0 -0.30545,0.03328 -0.45353,0.199009 -0.245135,0.274353 -0.242634,0.583853 0.0067,0.833219 0.237124,0.237124 0.609754,0.255546 0.857556,0.0424 z m -5.37549,-1.886953 c 0.155549,-0.170855 0.175886,-0.23464 0.145956,-0.457783 -0.04603,-0.343175 -0.274296,-0.543571 -0.619171,-0.543571 -0.518847,0 -0.805112,0.572162 -0.487979,0.975332 0.270737,0.344186 0.661891,0.354776 0.961194,0.02602 z m 3.414882,0.17198 c 0.254711,-0.106425 0.350294,-0.263121 0.350294,-0.574261 0,-0.326312 -0.278847,-0.599073 -0.612441,-0.599073 -0.318217,0 -0.503178,0.136887 -0.593841,0.439494 -0.06378,0.212865 -0.05726,0.273423 0.04896,0.4553 0.118395,0.202718 0.344973,0.365043 0.512224,0.366966 0.04452,5.06e-4 0.177183,-0.03928 0.294807,-0.08843 z M 20.808983,20.21948 c 0.380065,-0.380064 0.174348,-0.986051 -0.359023,-1.057592 -0.224909,-0.03017 -0.287456,-0.0096 -0.471976,0.15528 -0.177661,0.15874 -0.212707,0.233793 -0.212707,0.455514 0,0.21968 0.03531,0.29701 0.204748,0.448403 0.280276,0.250427 0.587514,0.249839 0.838958,-0.0016 z m 3.601425,0.0067 c 0.165732,-0.148081 0.199009,-0.223919 0.199009,-0.453531 0,-0.231854 -0.03293,-0.305135 -0.206968,-0.460643 -0.5977,-0.534044 -1.392642,0.340059 -0.825259,0.907441 0.249366,0.249367 0.558865,0.251867 0.833218,0.0067 z m 3.518765,0.08785 c 0.426105,-0.220348 0.413324,-0.899567 -0.02065,-1.097298 -0.573372,-0.261246 -1.130891,0.320166 -0.82911,0.864643 0.16558,0.298742 0.529356,0.398341 0.849757,0.232655 z m -5.325329,-1.883086 c 0.109973,-0.0946 0.176895,-0.228889 0.200036,-0.40142 0.03001,-0.223709 0.0094,-0.287652 -0.150151,-0.466235 -0.155507,-0.174043 -0.228788,-0.206969 -0.460643,-0.206969 -0.229612,0 -0.30545,0.03328 -0.45353,0.199009 -0.245135,0.274353 -0.242634,0.583853 0.0067,0.833219 0.237124,0.237124 0.609754,0.255546 0.857556,0.0424 z m 3.634709,-0.0424 c 0.483882,-0.483882 -0.02789,-1.254869 -0.658162,-0.991525 -0.314244,0.1313 -0.457136,0.424292 -0.361919,0.742097 0.08908,0.297308 0.275566,0.433975 0.592187,0.433975 0.184783,0 0.28776,-0.04441 0.427894,-0.184547 z m -5.637417,-1.651078 c 0.62418,-0.217591 0.45514,-1.194833 -0.206678,-1.194833 -0.299309,0 -0.449771,0.08527 -0.57385,0.325215 -0.126115,0.243878 -0.0766,0.554399 0.116386,0.72994 0.233992,0.212837 0.371387,0.241733 0.664142,0.139678 z m 3.683499,-0.03104 c 0.262266,-0.135623 0.400022,-0.473271 0.307484,-0.753664 -0.211335,-0.64035 -1.199476,-0.484699 -1.199476,0.188941 0,0.305948 0.09438,0.466293 0.336427,0.571583 0.259647,0.112945 0.32546,0.112132 0.555565,-0.0069 z m 3.802858,-0.162441 c 0.15555,-0.170856 0.175887,-0.234641 0.145957,-0.457784 -0.04603,-0.343175 -0.274296,-0.543571 -0.619171,-0.543571 -0.518847,0 -0.805112,0.572162 -0.487979,0.975332 0.270737,0.344186 0.661891,0.354776 0.961193,0.02602 z m -5.58789,-1.659532 c 0.426105,-0.220348 0.413324,-0.899567 -0.02065,-1.097298 -0.323946,-0.1476 -0.676991,-0.04116 -0.827248,0.249403 -0.296354,0.573086 0.274809,1.144249 0.847895,0.847895 z m 3.781346,-0.130621 c 0.325776,-0.378738 0.09959,-0.954352 -0.401419,-1.021551 -0.224909,-0.03017 -0.287456,-0.0096 -0.471976,0.155279 -0.177661,0.15874 -0.212708,0.233793 -0.212708,0.455514 0,0.221722 0.03505,0.296774 0.212708,0.455515 0.18452,0.164867 0.247067,0.185445 0.471976,0.155279 0.17253,-0.02314 0.306824,-0.09006 0.401419,-0.200036 z m -5.471966,-1.794861 c 0.329951,-0.32995 0.209628,-0.871296 -0.225584,-1.014929 -0.297341,-0.09813 -0.627525,0.04719 -0.765731,0.337008 -0.300664,0.630498 0.494771,1.174465 0.991315,0.677921 z m 3.561277,0.08467 c 0.387538,-0.253925 0.31147,-0.88969 -0.128443,-1.073497 -0.444446,-0.185702 -0.849174,0.08521 -0.849174,0.568402 0,0.497406 0.553167,0.783205 0.977617,0.505095 z m 3.663154,-0.04228 c 0.109973,-0.09459 0.176895,-0.228889 0.200036,-0.401419 0.03017,-0.224909 0.0096,-0.287457 -0.155279,-0.471976 -0.158741,-0.177661 -0.233793,-0.212707 -0.455515,-0.212707 -0.219679,0 -0.297009,0.03531 -0.448403,0.204748 -0.250426,0.280276 -0.249839,0.587514 0.0016,0.838958 0.237124,0.237124 0.609753,0.255546 0.857556,0.0424 z m -5.37549,-1.886953 c 0.155549,-0.170855 0.175886,-0.23464 0.145956,-0.457783 -0.04603,-0.343175 -0.274296,-0.54357 -0.619171,-0.54357 -0.518847,0 -0.805112,0.572162 -0.487979,0.975331 0.270737,0.344186 0.661891,0.354776 0.961194,0.02602 z m 3.414882,0.17198 c 0.254711,-0.106425 0.350294,-0.26312 0.350294,-0.574261 0,-0.471157 -0.601578,-0.7771278 -0.991273,-0.504175 -0.350091,0.245213 -0.311591,0.815579 0.07079,1.048755 0.233462,0.142365 0.293072,0.145468 0.570188,0.02968 z M 24.410408,9.3670734 c 0.165732,-0.1480809 0.199009,-0.2239188 0.199009,-0.4535309 0,-0.2318547 -0.03293,-0.3051352 -0.206968,-0.4606427 -0.178583,-0.1595641 -0.242526,-0.1801568 -0.466236,-0.150151 -0.334858,0.044914 -0.54357,0.2753954 -0.54357,0.6002664 0,0.5696824 0.595609,0.841255 1.017765,0.4640582 z"
         style="opacity:0.25;fill:#ffffff;fill-opacity:1;stroke:none;stroke-width:0.06323396;stroke-miterlimit:4;stroke-dasharray:none;stroke-dashoffset:0;stroke-opacity:0.58585857" />
    </g>
    <g
       aria-label="Micrófono"
       style="font-style:normal;font-weight:normal;font-size:2.11666656px;line-height:1.25;font-family:sans-serif;letter-spacing:0px;word-spacing:0px;fill:#000000;fill-opacity:1;stroke:none;stroke-width:0.26458332;opacity:0.5"
       id="text1080">
      <path
         d="M 1.322917,9.7370722 H 1.6340091 L 2.0277835,10.787137 2.4236249,9.7370722 H 2.7347171 V 11.28013 H 2.5311119 V 9.9251744 L 2.1332034,10.983508 H 1.9233971 L 1.5254886,9.9251744 V 11.28013 H 1.322917 Z"
         style="stroke-width:0.26458332"
         id="path869" />
      <path
         d="M 3.1419273,10.122578 H 3.3320965 V 11.28013 H 3.1419273 Z m 0,-0.4506181 H 3.3320965 V 9.9127721 H 3.1419273 Z"
         style="stroke-width:0.26458332"
         id="path871" />
      <path
         d="m 4.5619957,10.16702 v 0.177767 q -0.080615,-0.04444 -0.162264,-0.06615 -0.080615,-0.02274 -0.1632975,-0.02274 -0.1850017,0 -0.287321,0.117822 -0.1023193,0.116789 -0.1023193,0.328662 0,0.211873 0.1023193,0.329696 0.1023193,0.116788 0.287321,0.116788 0.082682,0 0.1632975,-0.0217 0.081649,-0.02274 0.162264,-0.06718 v 0.1757 q -0.079582,0.03721 -0.1653646,0.05581 -0.084749,0.0186 -0.1808675,0.0186 -0.2614827,0 -0.4154785,-0.164331 -0.1539958,-0.164331 -0.1539958,-0.443384 0,-0.283187 0.1550293,-0.445451 0.1560628,-0.162264 0.4268473,-0.162264 0.08785,0 0.1715658,0.0186 0.083716,0.01757 0.162264,0.05374 z"
         style="stroke-width:0.26458332"
         id="path873" />
      <path
         d="m 5.5655518,10.300345 q -0.032039,-0.0186 -0.07028,-0.02687 -0.037207,-0.0093 -0.082682,-0.0093 -0.1612305,0 -0.2480469,0.10542 -0.085783,0.104386 -0.085783,0.300757 V 11.28013 H 4.887557 v -1.157552 h 0.1912028 v 0.179834 q 0.059945,-0.10542 0.1560629,-0.156062 0.096118,-0.05168 0.2335774,-0.05168 0.019637,0 0.043408,0.0031 0.023771,0.0021 0.05271,0.0072 z"
         style="stroke-width:0.26458332"
         id="path875" />
      <path
         d="m 6.1701659,10.255904 q -0.1529622,0 -0.2418457,0.119889 -0.088883,0.118856 -0.088883,0.326595 0,0.207739 0.08785,0.327628 0.088883,0.118856 0.2428792,0.118856 0.1519287,0 0.2408122,-0.119889 0.088883,-0.119889 0.088883,-0.326595 0,-0.205672 -0.088883,-0.325562 -0.088884,-0.120922 -0.2408122,-0.120922 z m 0,-0.161231 q 0.2480469,0 0.3896403,0.161231 0.1415934,0.16123 0.1415934,0.446484 0,0.28422 -0.1415934,0.446484 -0.1415934,0.161231 -0.3896403,0.161231 -0.2490804,0 -0.3906738,-0.161231 -0.1405599,-0.162264 -0.1405599,-0.446484 0,-0.285254 0.1405599,-0.446484 0.1415934,-0.161231 0.3906738,-0.161231 z M 6.3138264,9.5872106 H 6.5194986 L 6.1825683,9.9758173 H 6.0244384 Z"
         style="stroke-width:0.26458332"
         id="path877" />
      <path
         d="M 7.601603,9.6719599 V 9.8300898 H 7.4197019 q -0.1023193,0 -0.1426269,0.041341 -0.039274,0.041341 -0.039274,0.1488281 v 0.102319 H 7.55096 v 0.147795 H 7.2378009 V 11.28013 H 7.0465981 v -1.009757 h -0.181901 v -0.147795 h 0.181901 v -0.08061 q 0,-0.1932697 0.089917,-0.2811196 0.089917,-0.088884 0.2852539,-0.088884 z"
         style="stroke-width:0.26458332"
         id="path879" />
      <path
         d="m 8.2082843,10.255904 q -0.1529623,0 -0.2418457,0.119889 -0.088883,0.118856 -0.088883,0.326595 0,0.207739 0.08785,0.327628 0.088883,0.118856 0.2428792,0.118856 0.1519287,0 0.2408121,-0.119889 0.088883,-0.119889 0.088883,-0.326595 0,-0.205672 -0.088883,-0.325562 -0.088883,-0.120922 -0.2408121,-0.120922 z m 0,-0.161231 q 0.2480468,0 0.3896403,0.161231 0.1415934,0.16123 0.1415934,0.446484 0,0.28422 -0.1415934,0.446484 -0.1415935,0.161231 -0.3896403,0.161231 -0.2490804,0 -0.3906738,-0.161231 -0.1405599,-0.162264 -0.1405599,-0.446484 0,-0.285254 0.1405599,-0.446484 0.1415934,-0.161231 0.3906738,-0.161231 z"
         style="stroke-width:0.26458332"
         id="path881" />
      <path
         d="M 10.015926,10.581465 V 11.28013 H 9.8257565 v -0.692464 q 0,-0.164331 -0.064079,-0.24598 -0.064079,-0.08165 -0.1922363,-0.08165 -0.1539958,0 -0.2428793,0.09819 -0.088883,0.09818 -0.088883,0.267684 V 11.28013 H 9.0464759 v -1.157552 h 0.1912028 v 0.179834 q 0.068213,-0.104386 0.1601969,-0.156062 0.093018,-0.05168 0.2139404,-0.05168 0.1994711,0 0.3017904,0.124024 0.1023196,0.122989 0.1023196,0.362768 z"
         style="stroke-width:0.26458332"
         id="path883" />
      <path
         d="m 10.845849,10.255904 q -0.152962,0 -0.241845,0.119889 -0.08888,0.118856 -0.08888,0.326595 0,0.207739 0.08785,0.327628 0.08888,0.118856 0.242879,0.118856 0.151929,0 0.240813,-0.119889 0.08888,-0.119889 0.08888,-0.326595 0,-0.205672 -0.08888,-0.325562 -0.08888,-0.120922 -0.240813,-0.120922 z m 0,-0.161231 q 0.248047,0 0.389641,0.161231 0.141593,0.16123 0.141593,0.446484 0,0.28422 -0.141593,0.446484 -0.141594,0.161231 -0.389641,0.161231 -0.24908,0 -0.390673,-0.161231 -0.14056,-0.162264 -0.14056,-0.446484 0,-0.285254 0.14056,-0.446484 0.141593,-0.161231 0.390673,-0.161231 z"
         style="stroke-width:0.26458332"
         id="path885" />
    </g>
    <path
       style="opacity:0.5;fill:#ffffff;fill-opacity:1;stroke:#000000;stroke-width:0.0177408;stroke-miterlimit:4;stroke-dasharray:none;stroke-dashoffset:0;stroke-opacity:1"
       d="m 6.1400414,6.8568783 c -0.028551,-0.0057 -0.032797,-0.017121 -0.027398,-0.073729 0.00838,-0.087911 -0.029842,-0.1321367 -0.1142103,-0.1321367 -0.060921,0 -0.1169305,0.038636 -0.1169305,0.080661 0,0.010761 -0.00605,0.019566 -0.013433,0.019566 -0.022532,0 -0.1579785,-0.092232 -0.2287791,-0.1557864 l -0.066817,-0.059979 0.062641,-6.88e-4 c 0.080055,-8.995e-4 0.1294585,-0.047976 0.1294585,-0.1233889 0,-0.068989 -0.048294,-0.1167352 -0.118074,-0.1167352 -0.066895,0 -0.1213549,0.055342 -0.1213549,0.1233207 v 0.052791 l -0.030637,-0.039335 c -0.039172,-0.050293 -0.130838,-0.2304282 -0.130838,-0.2571144 0,-0.011189 0.011277,-0.029701 0.025056,-0.041138 0.053308,-0.044242 0.012449,-0.1837478 -0.053817,-0.1837478 -0.03108,0 -0.038057,-0.047716 -0.038057,-0.2602836 0,-0.1611305 0.00494,-0.2074381 0.022146,-0.2074381 0.012179,0 0.039027,-0.01797 0.05966,-0.039933 C 5.4339024,5.382977 5.4219302,5.3003955 5.3517842,5.256426 L 5.2981383,5.2227995 V 5.005643 4.7884865 l 0.053646,-0.033626 c 0.070146,-0.04397 0.082118,-0.126551 0.026872,-0.1853578 -0.020632,-0.021963 -0.04748,-0.039933 -0.05966,-0.039933 -0.017309,0 -0.022005,-0.04834 -0.0215,-0.2213326 l 6.35e-4,-0.2213327 0.053646,-0.033627 C 5.4401799,3.9978642 5.4314513,3.8581491 5.3381219,3.8347253 L 5.2968432,3.8243642 V 3.6015781 3.3787918 l 0.045549,-0.021831 c 0.09278,-0.044468 0.09387,-0.1854809 0.00169,-0.2197648 l -0.05147,-0.019145 0.010051,-0.141987 c 0.010488,-0.1481431 0.048136,-0.3017385 0.087866,-0.3584598 0.012779,-0.018246 0.023236,-0.045144 0.023236,-0.059774 0,-0.01463 0.035783,-0.078697 0.079519,-0.1423722 0.075195,-0.109476 0.082689,-0.1155034 0.1378108,-0.1108298 0.077371,0.00656 0.1188197,-0.027033 0.1316258,-0.1066811 0.00988,-0.061449 0.017883,-0.069137 0.1308316,-0.1256778 0.2870155,-0.1436768 0.6201667,-0.1438216 0.9096174,-3.943e-4 0.1153457,0.057155 0.1229305,0.064361 0.1326941,0.1260731 0.012668,0.080072 0.054562,0.1142195 0.1297609,0.1057687 0.052398,-0.00589 0.062014,10e-4 0.1296755,0.092913 0.040195,0.0546 0.077707,0.1189853 0.083362,0.1430779 0.00565,0.024092 0.024598,0.067647 0.042099,0.096787 0.037745,0.062853 0.080821,0.2738279 0.080821,0.3958421 0,0.080746 -0.00341,0.08803 -0.049359,0.1053732 -0.090119,0.034016 -0.087662,0.1754093 0.00381,0.219251 l 0.045549,0.021831 v 0.2245971 c 0,0.1753804 -0.00485,0.2245971 -0.022146,0.2245971 -0.037235,0 -0.094786,0.074646 -0.094786,0.1229426 0,0.044957 0.064428,0.1276226 0.099467,0.1276226 0.011303,0 0.017238,0.078088 0.01682,0.2213327 l -6.35e-4,0.2213324 -0.053646,0.033754 c -0.045673,0.028737 -0.053646,0.043582 -0.053646,0.099881 0,0.056299 0.00797,0.071143 0.053646,0.099881 l 0.053646,0.033754 V 5.005643 5.2227995 l -0.053646,0.033627 c -0.070146,0.043969 -0.082118,0.126551 -0.026872,0.1853578 0.020632,0.021963 0.04748,0.039933 0.05966,0.039933 0.017298,0 0.022146,0.049442 0.022146,0.2259222 0,0.2241116 -3.175e-4,0.2260462 -0.040745,0.2414132 -0.071802,0.027299 -0.1033227,0.1408168 -0.051129,0.1841341 0.013782,0.011438 0.025056,0.029949 0.025056,0.041138 0,0.028581 -0.093363,0.2093447 -0.1340509,0.2595399 l -0.033851,0.041761 0.010001,-0.043586 C 7.2015669,6.3244343 7.0346445,6.2462952 6.9646741,6.3327049 6.8937676,6.4202709 6.9490531,6.5335176 7.0633272,6.534786 l 0.062641,6.879e-4 -0.066817,0.059444 c -0.084394,0.075081 -0.2009849,0.1563219 -0.2243423,0.1563219 -0.00983,0 -0.01787,-0.01011 -0.01787,-0.022468 0,-0.039371 -0.059159,-0.077759 -0.119833,-0.077759 -0.082411,0 -0.1211596,0.046442 -0.1097463,0.131536 0.00833,0.062074 0.00617,0.065991 -0.041599,0.075545 -0.054076,0.010814 -0.3498723,0.00993 -0.4057258,-0.00122 z M 6.4290288,6.5080789 c 0.049559,-0.034713 0.051564,-0.1394991 0.0035,-0.1829956 -0.077052,-0.069731 -0.2002367,-0.016637 -0.2002367,0.086306 0,0.1044596 0.1090941,0.1580761 0.1967355,0.09669 z M 6.0819543,6.1498826 c 0.04974,-0.04974 0.044545,-0.1391542 -0.010604,-0.1825353 -0.024207,-0.019042 -0.05702,-0.034621 -0.072917,-0.034621 -0.015896,0 -0.04871,0.015579 -0.072917,0.034621 -0.05871,0.046181 -0.06251,0.1509811 -0.00689,0.1899404 0.05116,0.035834 0.1233614,0.03256 0.1633265,-0.00741 z m 0.7025161,0.00259 c 0.055058,-0.044584 0.051547,-0.1299094 -0.00743,-0.1806424 -0.056041,-0.048204 -0.092965,-0.049311 -0.1499388,-0.0045 -0.032253,0.025371 -0.044014,0.049919 -0.044014,0.091874 0,0.1087514 0.1159473,0.1624484 0.2013857,0.093265 z M 5.7311631,5.7990811 c 0.04974,-0.04974 0.044545,-0.1391545 -0.010604,-0.1825353 -0.050396,-0.039642 -0.071466,-0.042177 -0.1297647,-0.015613 -0.080032,0.036465 -0.089461,0.1697222 -0.015071,0.2129977 0.048262,0.028076 0.1193027,0.021291 0.1554411,-0.014848 z m 0.7015826,0 c 0.04974,-0.04974 0.044545,-0.1391545 -0.010604,-0.1825353 -0.024207,-0.019042 -0.05702,-0.034621 -0.072917,-0.034621 -0.015896,0 -0.048709,0.015579 -0.072917,0.034621 -0.088259,0.069424 -0.038784,0.2159439 0.072917,0.2159439 0.02784,0 0.064961,-0.014848 0.083522,-0.033409 z m 0.6867758,0.01569 c 0.080121,-0.042879 0.072589,-0.1753577 -0.012166,-0.2139739 -0.057987,-0.026421 -0.079125,-0.023849 -0.1294672,0.015751 -0.032253,0.025371 -0.044013,0.049919 -0.044013,0.091874 0,0.1001953 0.095221,0.1547442 0.1856454,0.1063501 z M 6.082906,5.4473392 C 6.107592,5.4226532 6.115822,5.3960752 6.112139,5.3529482 6.098603,5.194485 5.8815025,5.1988729 5.8815025,5.3576082 c 0,0.110182 0.1251805,0.1659524 0.2014038,0.089729 z m 0.6858243,0.01664 c 0.077413,-0.04143 0.069913,-0.1765769 -0.011867,-0.2138384 -0.058299,-0.026563 -0.079368,-0.024027 -0.1297646,0.015613 -0.032253,0.025371 -0.044014,0.049919 -0.044014,0.091874 0,0.1001956 0.095221,0.1547442 0.1856457,0.1063503 z M 5.7259106,5.0945872 C 5.780565,5.0432416 5.7780911,4.9602191 5.720558,4.9149634 5.6444763,4.8551176 5.5636083,4.8766748 5.5328139,4.9650107 5.4891651,5.0902224 5.6299758,5.1847128 5.7259103,5.0945872 Z M 6.4081805,5.120056 C 6.451384,5.1034772 6.482018,5.0165513 6.463439,4.9632557 6.418872,4.8354104 6.2322934,4.8700488 6.2322934,5.006168 c 0,0.093052 0.085654,0.1485135 0.1758871,0.113888 z m 0.727638,-0.020405 c 0.082537,-0.066834 0.029519,-0.2193086 -0.076258,-0.2193086 -0.061697,0 -0.1256845,0.061726 -0.1256845,0.1212421 0,0.1082067 0.1184087,0.1657081 0.2019425,0.098066 z M 6.0713495,4.7454954 c 0.088086,-0.069289 0.036427,-0.2159439 -0.076067,-0.2159439 -0.1038412,0 -0.1551638,0.1438921 -0.077222,0.2165056 0.046628,0.043441 0.097586,0.043254 0.1532887,-5.556e-4 z m 0.6948241,0.018269 C 6.7829773,4.7547717 6.804879,4.724029 6.8148421,4.6954482 6.8585778,4.5699881 6.717871,4.4755673 6.621746,4.5658719 6.5186033,4.6627695 6.6411479,4.8306772 6.7661736,4.7637644 Z M 5.7205583,4.3947042 c 0.084878,-0.066765 0.039517,-0.2159441 -0.065663,-0.2159441 -0.097576,0 -0.1537075,0.075173 -0.1226518,0.1642591 0.029219,0.083819 0.1168776,0.1078775 0.1883148,0.051685 z m 0.6840529,0.015417 c 0.049587,-0.026101 0.060988,-0.04661 0.061287,-0.1102537 3.175e-4,-0.068606 -0.050256,-0.1211067 -0.1166746,-0.1211067 -0.1117007,0 -0.1611754,0.1465199 -0.072917,0.2159442 0.050194,0.039482 0.076562,0.042651 0.1283046,0.015416 z m 0.7009641,0.00391 c 0.085087,-0.03235 0.094206,-0.1745925 0.013946,-0.217546 -0.1314159,-0.070332 -0.2579346,0.1067403 -0.141632,0.198224 0.049046,0.03858 0.069066,0.041609 0.127686,0.019322 z M 6.0713495,4.0439136 c 0.088259,-0.069424 0.038784,-0.2159442 -0.072917,-0.2159442 -0.111701,0 -0.1611754,0.1465199 -0.072917,0.2159442 0.024207,0.019042 0.05702,0.034621 0.072917,0.034621 0.015896,0 0.048709,-0.015579 0.072917,-0.034621 z m 0.6855134,0.015613 c 0.08178,-0.037261 0.089281,-0.172408 0.011867,-0.2138383 -0.090425,-0.048394 -0.1856457,0.00615 -0.1856457,0.1063503 0,0.041955 0.011761,0.066503 0.044014,0.091874 0.050396,0.039642 0.071466,0.042177 0.1297646,0.015613 z M 5.7205583,3.6931213 c 0.087385,-0.068737 0.03894,-0.2159442 -0.071066,-0.2159442 -0.1187275,0 -0.1687597,0.1341306 -0.078873,0.2114479 0.056041,0.048204 0.092966,0.049312 0.1499391,0.0045 z m 0.7015824,0 c 0.05871,-0.046181 0.06251,-0.1509813 0.00689,-0.1899404 -0.088277,-0.061832 -0.1967354,-0.00777 -0.1967354,0.098067 0,0.061259 0.060304,0.1264949 0.1169304,0.1264949 0.015896,0 0.048709,-0.015579 0.072917,-0.034621 z m 0.685216,0.015751 c 0.1227156,-0.055913 0.074309,-0.2316941 -0.063804,-0.2316941 -0.1051798,0 -0.1505411,0.149179 -0.065663,0.2159442 0.050342,0.039599 0.07148,0.04217 0.1294672,0.015751 z M 6.0861304,3.3306263 c 0.040101,-0.035213 0.037812,-0.1288428 -0.00418,-0.1708309 -0.039965,-0.039965 -0.1121667,-0.043239 -0.1633265,-0.00741 -0.027255,0.01909 -0.037125,0.042828 -0.037125,0.089285 0,0.1172631 0.1153062,0.1673863 0.2046282,0.088951 z m 0.7043666,-0.00461 c 0.073413,-0.070474 0.0186,-0.1996345 -0.084719,-0.1996345 -0.1404897,0 -0.1717989,0.1906656 -0.039172,0.2385473 0.035644,0.012869 0.086633,-0.00315 0.123891,-0.038913 z M 5.7353392,2.9794536 c 0.040132,-0.034719 0.037836,-0.1284388 -0.00418,-0.1704507 -0.07477,-0.074771 -0.2060202,-0.021989 -0.2060202,0.082847 0,0.1119698 0.122849,0.1631696 0.2101964,0.087604 z m 1.4160961,-0.016065 c 0.042066,-0.053479 0.04167,-0.088752 -0.00161,-0.1437802 -0.068062,-0.086527 -0.2159439,-0.039137 -0.2159439,0.0692 0,0.1260769 0.1394494,0.1738805 0.2175592,0.07458 z M 6.4356064,2.981811 c 0.03862,-0.034951 0.040264,-0.134384 0.0029,-0.1756675 -0.034951,-0.03862 -0.134384,-0.040263 -0.1756675,-0.0029 -0.03862,0.034951 -0.040264,0.1343842 -0.0029,0.1756674 0.034951,0.038621 0.134384,0.040264 0.1756675,0.0029 z M 6.0848152,2.6310291 c 0.03862,-0.034951 0.040263,-0.1343841 0.0029,-0.1756675 -0.034951,-0.03862 -0.1343843,-0.040263 -0.1756675,-0.0029 -0.038621,0.034951 -0.040264,0.134384 -0.0029,0.1756674 0.034951,0.03862 0.134384,0.040264 0.1756675,0.0029 z M 6.792084,2.6250491 C 6.864713,2.5447951 6.80856,2.4248125 6.698373,2.4248125 c -0.071546,0 -0.1152888,0.044366 -0.1152888,0.1169304 0,0.023474 0.011702,0.059386 0.026003,0.079805 0.034713,0.049559 0.1394991,0.051564 0.1829956,0.0035 z M 6.4356064,2.2802378 c 0.042461,-0.038426 0.040708,-0.1417293 -0.00308,-0.1813539 -0.04311,-0.039014 -0.1235025,-0.039014 -0.1666124,0 -0.048063,0.043496 -0.046058,0.1482829 0.0035,0.1829957 0.048466,0.033947 0.1277276,0.033164 0.1661874,-0.00164 z"
       id="path1118"
       inkscape:connector-curvature="0" />
  </g>
</svg>
