<?xml version="1.0" encoding="UTF-8" standalone="no"?>
<!-- Created with Inkscape (http://www.inkscape.org/) -->

<svg
   xmlns:dc="http://purl.org/dc/elements/1.1/"
   xmlns:cc="http://creativecommons.org/ns#"
   xmlns:rdf="http://www.w3.org/1999/02/22-rdf-syntax-ns#"
   xmlns:svg="http://www.w3.org/2000/svg"
   xmlns="http://www.w3.org/2000/svg"
   xmlns:sodipodi="http://sodipodi.sourceforge.net/DTD/sodipodi-0.dtd"
   xmlns:inkscape="http://www.inkscape.org/namespaces/inkscape"
   width="48"
   height="48"
   viewBox="0 0 12.7 12.7"
   version="1.1"
   id="svg827"
   inkscape:version="0.92.3 (2405546, 2018-03-11)"
   sodipodi:docname="micInput.svg">
  <defs
     id="defs821" />
  <sodipodi:namedview
     id="base"
     pagecolor="#ffffff"
     bordercolor="#666666"
     borderopacity="1.0"
     inkscape:pageopacity="0.0"
     inkscape:pageshadow="2"
     inkscape:zoom="15.839192"
     inkscape:cx="39.964187"
     inkscape:cy="35.014529"
     inkscape:document-units="mm"
     inkscape:current-layer="g1310"
     showgrid="false"
     units="px"
     inkscape:window-width="1920"
     inkscape:window-height="1057"
     inkscape:window-x="-8"
     inkscape:window-y="-8"
     inkscape:window-maximized="1"
     inkscape:pagecheckerboard="true" />
  <metadata
     id="metadata824">
    <rdf:RDF>
      <cc:Work
         rdf:about="">
        <dc:format>image/svg+xml</dc:format>
        <dc:type
           rdf:resource="http://purl.org/dc/dcmitype/StillImage" />
        <dc:title></dc:title>
      </cc:Work>
    </rdf:RDF>
  </metadata>
  <g
     inkscape:label="Capa 1"
     inkscape:groupmode="layer"
     id="layer1"
     transform="translate(0,-284.3)">
    <g
       id="g1253"
       transform="matrix(10.56492,0,0,10.56492,-3.5872423,166.68885)">
      <g
         id="g1310">
        <flowRoot
           xml:space="preserve"
           id="flowRoot822"
           style="font-style:normal;font-weight:normal;font-size:8px;line-height:1.25;font-family:sans-serif;letter-spacing:0px;word-spacing:0px;fill:#000000;fill-opacity:1;stroke:none"
           transform="matrix(0.02504357,0,0,0.02504357,0.33954278,0.31340985)"><flowRegion
             id="flowRegion824"><rect
               id="rect826"
               width="110"
               height="10"
               x="281.42856"
               y="204.28572" /></flowRegion><flowPara
             id="flowPara828"></flowPara></flowRoot>        <g
           id="g895"
           transform="matrix(0.0964836,0,0,0.0964836,0.32791764,11.120607)">
          <rect
             y="0.76225585"
             x="0.76225007"
             height="11.1755"
             width="11.1755"
             id="rect1372"
             style="opacity:1;fill:none;fill-opacity:1;stroke:#000000;stroke-width:0.28099999;stroke-miterlimit:4;stroke-dasharray:none;stroke-dashoffset:0;stroke-opacity:1" />
          <g
             id="text1080"
             style="font-style:normal;font-weight:normal;font-size:1.89697504px;line-height:1.25;font-family:sans-serif;letter-spacing:0px;word-spacing:0px;fill:#000000;fill-opacity:1;stroke:none;stroke-width:0.23712188"
             aria-label="Ingresarlos">
            <path
               inkscape:connector-curvature="0"
               id="path851"
               style="stroke-width:0.23712188"
               d="M 1.247248,9.7303142 H 1.434352 V 11.113216 H 1.247248 Z" />
            <path
               inkscape:connector-curvature="0"
               id="path853"
               style="stroke-width:0.23712188"
               d="m 2.661643,10.487066 v 0.62615 H 2.4912117 v -0.620592 q 0,-0.147275 -0.057428,-0.220449 Q 2.3763558,10.199 2.2614999,10.199 q -0.1380124,0 -0.2176705,0.08799 -0.079658,0.08799 -0.079658,0.239901 v 0.58632 H 1.7928136 v -1.037408 h 0.1713576 v 0.161169 q 0.061133,-0.09355 0.1435699,-0.139865 0.083363,-0.04631 0.1917353,-0.04631 0.1787677,0 0.2704671,0.111151 0.0917,0.110225 0.0917,0.325116 z" />
            <path
               inkscape:connector-curvature="0"
               id="path855"
               style="stroke-width:0.23712188"
               d="m 3.6860837,10.582471 q 0,-0.185252 -0.076879,-0.28714 -0.075953,-0.101888 -0.2139654,-0.101888 -0.1370861,0 -0.2139655,0.101888 -0.075953,0.101888 -0.075953,0.28714 0,0.184325 0.075953,0.286213 0.076879,0.101889 0.2139655,0.101889 0.1380123,0 0.2139654,-0.101889 0.076879,-0.101888 0.076879,-0.286213 z m 0.1704313,0.401996 q 0,0.264909 -0.1176346,0.393659 -0.1176347,0.129676 -0.3603142,0.129676 -0.089847,0 -0.169505,-0.01389 -0.079658,-0.01297 -0.154685,-0.04075 v -0.1658 q 0.075027,0.04076 0.1482012,0.06021 0.073174,0.01945 0.1491274,0.01945 0.1676526,0 0.2510157,-0.08799 0.083363,-0.08707 0.083363,-0.263983 v -0.08429 q -0.052797,0.0917 -0.1352336,0.137086 -0.082437,0.04539 -0.1972928,0.04539 -0.190809,0 -0.3075174,-0.145422 -0.1167085,-0.145422 -0.1167085,-0.385323 0,-0.240827 0.1167085,-0.386249 0.1167084,-0.145423 0.3075174,-0.145423 0.1148559,0 0.1972928,0.04539 0.082437,0.04539 0.1352336,0.137086 V 10.075808 H 3.856515 Z" />
            <path
               inkscape:connector-curvature="0"
               id="path857"
               style="stroke-width:0.23712188"
               d="m 4.8087076,10.235124 q -0.028714,-0.01667 -0.062985,-0.02408 -0.033345,-0.0083 -0.074101,-0.0083 -0.1444961,0 -0.2223017,0.09448 -0.076879,0.09355 -0.076879,0.269541 v 0.546491 H 4.2010828 v -1.037408 h 0.1713576 v 0.161169 q 0.053723,-0.09448 0.1398649,-0.139865 0.086142,-0.04631 0.2093341,-0.04631 0.017599,0 0.038903,0.0028 0.021304,0.0019 0.047239,0.0065 z" />
            <path
               inkscape:connector-curvature="0"
               id="path859"
               style="stroke-width:0.23712188"
               d="m 5.835927,10.551904 v 0.08336 H 5.0523133 q 0.011115,0.175989 0.1055934,0.268614 0.095404,0.0917 0.2649096,0.0917 0.098183,0 0.1898827,-0.02408 0.092626,-0.02408 0.183399,-0.07225 v 0.161169 q -0.091699,0.0389 -0.1880303,0.05928 -0.096331,0.02038 -0.1954403,0.02038 -0.2482369,0 -0.3936593,-0.144496 -0.1444962,-0.144496 -0.1444962,-0.390881 0,-0.254721 0.1370861,-0.403848 0.1380123,-0.150054 0.3714292,-0.150054 0.2093342,0 0.3306739,0.135234 0.1222659,0.134307 0.1222659,0.365871 z m -0.1704313,-0.05002 q -0.00185,-0.139865 -0.078732,-0.223228 -0.075953,-0.08336 -0.2019241,-0.08336 -0.1426436,0 -0.2287856,0.08059 -0.085216,0.08058 -0.098183,0.226933 z" />
            <path
               inkscape:connector-curvature="0"
               id="path861"
               style="stroke-width:0.23712188"
               d="m 6.7770045,10.106375 v 0.161168 q -0.072248,-0.03705 -0.1500537,-0.05557 -0.077806,-0.01853 -0.1611688,-0.01853 -0.1268973,0 -0.190809,0.0389 -0.062985,0.0389 -0.062985,0.116708 0,0.05928 0.045387,0.09355 0.045387,0.03335 0.1824727,0.06391 l 0.058354,0.01297 q 0.1815464,0.0389 0.2574995,0.110225 0.076879,0.0704 0.076879,0.197293 0,0.144496 -0.1148559,0.228785 -0.1139297,0.08429 -0.3140012,0.08429 -0.083363,0 -0.1741364,-0.01667 -0.089847,-0.01575 -0.1898828,-0.04816 v -0.175989 q 0.094478,0.04909 0.1861777,0.0741 0.091699,0.02408 0.1815465,0.02408 0.1204134,0 0.1852515,-0.04076 0.064838,-0.04168 0.064838,-0.116709 0,-0.06947 -0.047239,-0.106519 -0.046313,-0.03705 -0.2047028,-0.07132 l -0.05928,-0.01389 q -0.15839,-0.03334 -0.2287856,-0.101888 -0.070396,-0.06947 -0.070396,-0.189883 0,-0.146349 0.1037408,-0.226007 0.1037408,-0.07966 0.2945498,-0.07966 0.094478,0 0.1778414,0.01389 0.083363,0.01389 0.1537588,0.04168 z" />
            <path
               inkscape:connector-curvature="0"
               id="path863"
               style="stroke-width:0.23712188"
               d="m 7.5763647,10.591734 q -0.2065553,0 -0.2862135,0.04724 -0.079658,0.04724 -0.079658,0.161168 0,0.09077 0.05928,0.144497 0.060207,0.0528 0.1630213,0.0528 0.1417173,0 0.226933,-0.100036 0.086142,-0.100962 0.086142,-0.267688 v -0.03798 z m 0.3399365,-0.0704 v 0.591878 H 7.7458698 v -0.157463 q -0.058354,0.09448 -0.1454224,0.139865 -0.087068,0.04446 -0.2130392,0.04446 -0.1593162,0 -0.2537945,-0.08892 -0.093552,-0.08985 -0.093552,-0.2399 0,-0.175063 0.1167085,-0.263984 0.1176346,-0.08892 0.3501252,-0.08892 h 0.2389744 v -0.01667 q 0,-0.117635 -0.077806,-0.181547 -0.076879,-0.06484 -0.2167442,-0.06484 -0.088921,0 -0.1732101,0.0213 -0.084289,0.0213 -0.1620951,0.06391 v -0.157464 q 0.093552,-0.03612 0.1815465,-0.05372 0.087994,-0.01853 0.1713576,-0.01853 0.2250805,0 0.3362314,0.116709 0.1111509,0.116708 0.1111509,0.35383 z" />
            <path
               inkscape:connector-curvature="0"
               id="path865"
               style="stroke-width:0.23712188"
               d="m 8.86942,10.235124 q -0.028714,-0.01667 -0.062985,-0.02408 -0.033345,-0.0083 -0.074101,-0.0083 -0.1444962,0 -0.2223018,0.09448 -0.076879,0.09355 -0.076879,0.269541 v 0.546491 H 8.2617951 v -1.037408 h 0.1713576 v 0.161169 q 0.053723,-0.09448 0.1398649,-0.139865 0.086142,-0.04631 0.2093342,-0.04631 0.017599,0 0.038903,0.0028 0.021304,0.0019 0.047239,0.0065 z" />
            <path
               inkscape:connector-curvature="0"
               id="path867"
               style="stroke-width:0.23712188"
               d="m 9.0500401,9.67196 h 0.1704314 v 1.441256 H 9.0500401 Z" />
            <path
               inkscape:connector-curvature="0"
               id="path869"
               style="stroke-width:0.23712188"
               d="m 9.9781498,10.195295 q -0.1370861,0 -0.2167442,0.107446 -0.079658,0.10652 -0.079658,0.292698 0,0.186177 0.078732,0.293623 0.079658,0.10652 0.2176705,0.10652 0.1361599,0 0.2158179,-0.107446 0.07966,-0.107446 0.07966,-0.292697 0,-0.184326 -0.07966,-0.291772 -0.07966,-0.108372 -0.2158182,-0.108372 z m 0,-0.144496 q 0.2223022,0 0.3491992,0.144496 0.126897,0.144497 0.126897,0.400144 0,0.25472 -0.126897,0.400143 -0.126897,0.144496 -0.3491992,0.144496 -0.223228,0 -0.3501253,-0.144496 -0.125971,-0.145423 -0.125971,-0.400143 0,-0.255647 0.125971,-0.400144 0.1268973,-0.144496 0.3501253,-0.144496 z" />
            <path
               inkscape:connector-curvature="0"
               id="path871"
               style="stroke-width:0.23712188"
               d="m 11.397176,10.106375 v 0.161168 q -0.07225,-0.03705 -0.150053,-0.05557 -0.07781,-0.01853 -0.161169,-0.01853 -0.126897,0 -0.190809,0.0389 -0.06298,0.0389 -0.06298,0.116708 0,0.05928 0.04539,0.09355 0.04539,0.03335 0.182473,0.06391 l 0.05835,0.01297 q 0.181546,0.0389 0.2575,0.110225 0.07688,0.0704 0.07688,0.197293 0,0.144496 -0.114856,0.228785 -0.11393,0.08429 -0.314001,0.08429 -0.08336,0 -0.174137,-0.01667 -0.08985,-0.01575 -0.189882,-0.04816 v -0.175989 q 0.09448,0.04909 0.186177,0.0741 0.0917,0.02408 0.181547,0.02408 0.120413,0 0.185251,-0.04076 0.06484,-0.04168 0.06484,-0.116709 0,-0.06947 -0.04724,-0.106519 -0.04631,-0.03705 -0.204703,-0.07132 l -0.05928,-0.01389 q -0.15839,-0.03334 -0.228786,-0.101888 -0.07039,-0.06947 -0.07039,-0.189883 0,-0.146349 0.103741,-0.226007 0.10374,-0.07966 0.294549,-0.07966 0.09448,0 0.177842,0.01389 0.08336,0.01389 0.153758,0.04168 z" />
          </g>
          <g
             transform="translate(0.07640933)"
             id="text834"
             style="font-style:normal;font-weight:normal;font-size:3.67305756px;line-height:1.25;font-family:sans-serif;letter-spacing:0px;word-spacing:0px;fill:#000000;fill-opacity:1;stroke:none;stroke-width:0.02504357;image-rendering:auto"
             aria-label="[x...x]">
            <path
               inkscape:connector-curvature="0"
               id="path836"
               style="stroke-width:0.02504357"
               d="M 1.2276204,4.2129578 H 1.9880581 V 4.4694261 H 1.5576216 V 7.2313932 H 1.9880581 V 7.4878616 H 1.2276204 Z" />
            <path
               inkscape:connector-curvature="0"
               id="path838"
               style="stroke-width:0.02504357"
               d="M 4.3626324,4.9949173 3.6362709,5.9723667 4.4002956,7.0036206 H 4.0111093 L 3.4264331,6.2144872 2.841757,7.0036206 H 2.4525707 L 3.2327367,5.9526383 2.5189297,4.9949173 H 2.9081159 L 3.440781,5.7105178 3.9734461,4.9949173 Z" />
            <path
               inkscape:connector-curvature="0"
               id="path840"
               style="stroke-width:0.02504357"
               d="M 4.9132321,6.5480754 H 5.2916575 V 7.0036206 H 4.9132321 Z" />
            <path
               inkscape:connector-curvature="0"
               id="path842"
               style="stroke-width:0.02504357"
               d="M 6.0825847,6.5480754 H 6.46101 V 7.0036206 H 6.0825847 Z" />
            <path
               inkscape:connector-curvature="0"
               id="path844"
               style="stroke-width:0.02504357"
               d="M 7.2519367,6.5480754 H 7.6303621 V 7.0036206 H 7.2519367 Z" />
            <path
               inkscape:connector-curvature="0"
               id="path846"
               style="stroke-width:0.02504357"
               d="M 10.044393,4.9949173 9.3180318,5.9723667 10.082056,7.0036206 H 9.6928702 L 9.108194,6.2144872 8.5235179,7.0036206 H 8.1343316 L 8.9144977,5.9526383 8.2006906,4.9949173 H 8.5898768 L 9.1225419,5.7105178 9.655207,4.9949173 Z" />
            <path
               inkscape:connector-curvature="0"
               id="path848"
               style="stroke-width:0.02504357"
               d="M 11.319561,4.2129578 V 7.4878616 H 10.559123 V 7.2313932 h 0.428643 V 4.4694261 H 10.559123 V 4.2129578 Z" />
          </g>
        </g>
      </g>
    </g>
  </g>
</svg>
