<?xml version="1.0" encoding="UTF-8" standalone="no"?>
<!-- Created with Inkscape (http://www.inkscape.org/) -->

<svg
   xmlns:dc="http://purl.org/dc/elements/1.1/"
   xmlns:cc="http://creativecommons.org/ns#"
   xmlns:rdf="http://www.w3.org/1999/02/22-rdf-syntax-ns#"
   xmlns:svg="http://www.w3.org/2000/svg"
   xmlns="http://www.w3.org/2000/svg"
   xmlns:sodipodi="http://sodipodi.sourceforge.net/DTD/sodipodi-0.dtd"
   xmlns:inkscape="http://www.inkscape.org/namespaces/inkscape"
   width="48"
   height="48"
   viewBox="0 0 12.7 12.7"
   version="1.1"
   id="svg827"
   inkscape:version="0.92.3 (2405546, 2018-03-11)"
   sodipodi:docname="mul.svg">
  <defs
     id="defs821" />
  <sodipodi:namedview
     id="base"
     pagecolor="#ffffff"
     bordercolor="#666666"
     borderopacity="1.0"
     inkscape:pageopacity="0.0"
     inkscape:pageshadow="2"
     inkscape:zoom="11.2"
     inkscape:cx="28.476529"
     inkscape:cy="14.223709"
     inkscape:document-units="mm"
     inkscape:current-layer="text882"
     showgrid="false"
     units="px"
     inkscape:window-width="1920"
     inkscape:window-height="1057"
     inkscape:window-x="-8"
     inkscape:window-y="-8"
     inkscape:window-maximized="1"
     inkscape:pagecheckerboard="true" />
  <metadata
     id="metadata824">
    <rdf:RDF>
      <cc:Work
         rdf:about="">
        <dc:format>image/svg+xml</dc:format>
        <dc:type
           rdf:resource="http://purl.org/dc/dcmitype/StillImage" />
        <dc:title />
      </cc:Work>
    </rdf:RDF>
  </metadata>
  <g
     inkscape:label="Capa 1"
     inkscape:groupmode="layer"
     id="layer1"
     transform="translate(0,-284.3)" />
  <g
     inkscape:groupmode="layer"
     id="layer2"
     inkscape:label="Capa 2">
    <rect
       style="opacity:1;fill:none;fill-opacity:1;stroke:#000000;stroke-width:0.28099999;stroke-miterlimit:4;stroke-dasharray:none;stroke-dashoffset:0;stroke-opacity:1"
       id="rect1372"
       width="11.1755"
       height="11.1755"
       x="0.76225007"
       y="0.76225585" />
    <g
       aria-label="Micrófono"
       style="font-style:normal;font-weight:normal;font-size:2.11666656px;line-height:1.25;font-family:sans-serif;letter-spacing:0px;word-spacing:0px;fill:#000000;fill-opacity:1;stroke:none;stroke-width:0.26458332"
       id="text1080">
      <g
         aria-label="suma"
         style="font-style:normal;font-weight:normal;font-size:3.88055563px;line-height:1.25;font-family:sans-serif;letter-spacing:0px;word-spacing:0px;fill:#000000;fill-opacity:1;stroke:none;stroke-width:0.07000434"
         id="text882">
        <g
           aria-label="multiplicación"
           style="font-style:normal;font-weight:normal;font-size:1.41931534px;line-height:1.25;font-family:sans-serif;letter-spacing:0px;word-spacing:0px;fill:#000000;fill-opacity:1;stroke:none;stroke-width:0.1;stroke-miterlimit:4;stroke-dasharray:none"
           id="text827"
           transform="matrix(1,0,0,1.2146986,0,-2.3382742)">
          <path
             d="m 2.1280911,9.9685431 q 0.047819,-0.085935 0.1143491,-0.1268236 0.066531,-0.040888 0.1566237,-0.040888 0.1212794,0 0.1871168,0.085242 0.065837,0.084549 0.065837,0.2411725 v 0.468485 H 2.5238084 v -0.464327 q 0,-0.111577 -0.039502,-0.1656326 -0.039502,-0.054056 -0.1205864,-0.054056 -0.099102,0 -0.1566236,0.065837 -0.057521,0.065838 -0.057521,0.1794936 v 0.438685 H 2.0213653 v -0.464327 q 0,-0.11227 -0.039502,-0.165633 -0.039502,-0.054056 -0.1219724,-0.054056 -0.097716,0 -0.1552376,0.06653 -0.057521,0.065838 -0.057521,0.178801 v 0.438685 H 1.5189221 V 9.8195427 h 0.1282096 v 0.1205864 q 0.043661,-0.071382 0.1046468,-0.1053398 0.060986,-0.033958 0.1448422,-0.033958 0.084549,0 0.1434562,0.042968 0.0596,0.042967 0.088014,0.1247438 z"
             style="stroke-width:0.1;stroke-miterlimit:4;stroke-dasharray:none"
             id="path820"
             inkscape:connector-curvature="0" />
          <path
             d="M 2.8938838,10.289414 V 9.8195427 h 0.1275166 v 0.4650203 q 0,0.110191 0.042968,0.165633 0.042968,0.05475 0.1289026,0.05475 0.1032608,0 0.1628609,-0.06584 0.060293,-0.06584 0.060293,-0.179493 V 9.8195427 H 3.5439413 V 10.595731 H 3.4164247 V 10.47653 q -0.046433,0.07069 -0.1081119,0.10534 -0.060986,0.03396 -0.1420702,0.03396 -0.1337538,0 -0.2030563,-0.08316 -0.069303,-0.08316 -0.069303,-0.243252 z M 3.2147544,9.800831 Z"
             style="stroke-width:0.1;stroke-miterlimit:4;stroke-dasharray:none"
             id="path822"
             inkscape:connector-curvature="0" />
          <path
             d="M 3.8079839,9.5173838 H 3.9355005 V 10.595731 H 3.8079839 Z"
             style="stroke-width:0.1;stroke-miterlimit:4;stroke-dasharray:none"
             id="path824"
             inkscape:connector-curvature="0" />
          <path
             d="m 4.3277526,9.5991607 v 0.220382 h 0.2626565 v 0.099103 H 4.3277526 v 0.4213593 q 0,0.09494 0.025642,0.121972 0.026335,0.02703 0.1060328,0.02703 h 0.1309817 v 0.106726 H 4.4594274 q -0.1476143,0 -0.2037494,-0.05475 Q 4.199543,10.48554 4.199543,10.340005 V 9.9186453 H 4.105985 v -0.099103 h 0.093558 v -0.220382 z"
             style="stroke-width:0.1;stroke-miterlimit:4;stroke-dasharray:none"
             id="path826"
             inkscape:connector-curvature="0" />
          <path
             d="M 4.7588144,9.8195427 H 4.886331 V 10.595731 H 4.7588144 Z m 0,-0.3021589 H 4.886331 V 9.6788586 H 4.7588144 Z"
             style="stroke-width:0.1;stroke-miterlimit:4;stroke-dasharray:none"
             id="path828"
             inkscape:connector-curvature="0" />
          <path
             d="m 5.275811,10.479303 v 0.411656 H 5.1476014 V 9.8195427 H 5.275811 V 9.937357 q 0.040195,-0.069303 0.1011817,-0.1025677 0.061679,-0.033958 0.1469213,-0.033958 0.1413771,0 0.2293913,0.1122701 0.088707,0.1122696 0.088707,0.2952286 0,0.182958 -0.088707,0.295228 -0.088014,0.112271 -0.2293913,0.112271 -0.085242,0 -0.1469213,-0.03327 -0.060986,-0.03396 -0.1011817,-0.10326 z M 5.7096447,10.20833 q 0,-0.140684 -0.058214,-0.2203822 -0.057521,-0.080391 -0.1587028,-0.080391 -0.1011816,0 -0.1593957,0.080391 -0.057521,0.079698 -0.057521,0.2203822 0,0.140684 0.057521,0.221075 0.058214,0.0797 0.1593957,0.0797 0.1011817,0 0.1587028,-0.0797 0.058214,-0.08039 0.058214,-0.221075 z"
             style="stroke-width:0.1;stroke-miterlimit:4;stroke-dasharray:none"
             id="path830"
             inkscape:connector-curvature="0" />
          <path
             d="M 6.0533853,9.5173838 H 6.1809019 V 10.595731 H 6.0533853 Z"
             style="stroke-width:0.1;stroke-miterlimit:4;stroke-dasharray:none"
             id="path832"
             inkscape:connector-curvature="0" />
          <path
             d="M 6.4470235,9.8195427 H 6.5745401 V 10.595731 H 6.4470235 Z m 0,-0.3021589 H 6.5745401 V 9.6788586 H 6.4470235 Z"
             style="stroke-width:0.1;stroke-miterlimit:4;stroke-dasharray:none"
             id="path834"
             inkscape:connector-curvature="0" />
          <path
             d="m 7.3992398,9.8493428 v 0.1192003 q -0.054056,-0.0298 -0.1088049,-0.044354 -0.054056,-0.015247 -0.109498,-0.015247 -0.1240515,0 -0.192661,0.079005 -0.068609,0.078312 -0.068609,0.2203819 0,0.14207 0.068609,0.221075 0.068609,0.07831 0.192661,0.07831 0.055442,0 0.109498,-0.01455 0.054749,-0.01525 0.1088049,-0.04505 v 0.117815 q -0.053363,0.02495 -0.110884,0.03742 -0.056828,0.01248 -0.1212794,0.01248 -0.1753353,0 -0.2785961,-0.110191 -0.1032607,-0.110191 -0.1032607,-0.297308 0,-0.189889 0.1039537,-0.2986937 0.1046468,-0.108805 0.2862194,-0.108805 0.058907,0 0.1150422,0.012474 0.056135,0.011781 0.1088049,0.036038 z"
             style="stroke-width:0.1;stroke-miterlimit:4;stroke-dasharray:none"
             id="path836"
             inkscape:connector-curvature="0" />
          <path
             d="m 7.9751434,10.205558 q -0.1545446,0 -0.2141447,0.03534 -0.0596,0.03534 -0.0596,0.120586 0,0.06792 0.044354,0.108112 0.045047,0.0395 0.1219724,0.0395 0.1060329,0 0.1697912,-0.07485 0.064451,-0.07554 0.064451,-0.200284 v -0.02841 z m 0.2543402,-0.05267 v 0.442843 H 8.101967 v -0.117814 q -0.043661,0.07069 -0.1088049,0.104646 -0.065144,0.03327 -0.1593958,0.03327 -0.1192003,0 -0.1898889,-0.06653 -0.069996,-0.06722 -0.069996,-0.179493 0,-0.130982 0.087321,-0.197513 0.088014,-0.06653 0.2619634,-0.06653 H 8.101967 v -0.01247 q 0,-0.08801 -0.058214,-0.1358333 -0.057521,-0.048512 -0.1621679,-0.048512 -0.06653,0 -0.1295956,0.01594 -0.063065,0.01594 -0.1212794,0.047819 V 9.854887 Q 7.7007061,9.827859 7.766543,9.814692 7.83238,9.800832 7.8947526,9.800832 q 0.1684051,0 0.2515681,0.087321 0.083163,0.087321 0.083163,0.264735 z"
             style="stroke-width:0.1;stroke-miterlimit:4;stroke-dasharray:none"
             id="path838"
             inkscape:connector-curvature="0" />
          <path
             d="m 9.0514114,9.8493428 v 0.1192003 q -0.054056,-0.0298 -0.1088049,-0.044354 -0.054056,-0.015247 -0.109498,-0.015247 -0.1240515,0 -0.192661,0.079005 -0.068609,0.078312 -0.068609,0.2203819 0,0.14207 0.068609,0.221075 0.068609,0.07831 0.192661,0.07831 0.055442,0 0.109498,-0.01455 0.054749,-0.01525 0.1088049,-0.04505 v 0.117815 q -0.053363,0.02495 -0.110884,0.03742 -0.056828,0.01248 -0.1212794,0.01248 -0.1753353,0 -0.2785961,-0.110191 -0.1032607,-0.110191 -0.1032607,-0.297308 0,-0.189889 0.1039538,-0.2986937 0.1046467,-0.108805 0.2862193,-0.108805 0.058907,0 0.1150422,0.012474 0.056135,0.011781 0.1088049,0.036038 z"
             style="stroke-width:0.1;stroke-miterlimit:4;stroke-dasharray:none"
             id="path840"
             inkscape:connector-curvature="0" />
          <path
             d="M 9.2745658,9.8195427 H 9.4020824 V 10.595731 H 9.2745658 Z m 0,-0.3021589 H 9.4020824 V 9.6788586 H 9.2745658 Z"
             style="stroke-width:0.1;stroke-miterlimit:4;stroke-dasharray:none"
             id="path842"
             inkscape:connector-curvature="0" />
          <path
             d="m 9.9689763,9.9089429 q -0.1025677,0 -0.1621679,0.080391 -0.0596,0.079698 -0.0596,0.2189961 0,0.139298 0.058907,0.219689 0.0596,0.0797 0.1628609,0.0797 0.1018747,0 0.1614747,-0.08039 0.0596,-0.08039 0.0596,-0.218996 0,-0.137912 -0.0596,-0.218303 -0.0596,-0.081084 -0.1614747,-0.081084 z m 0,-0.1081119 q 0.1663257,0 0.2612707,0.1081119 0.09494,0.1081121 0.09494,0.2993871 0,0.190582 -0.09494,0.299387 -0.09495,0.108112 -0.2612707,0.108112 -0.167019,0 -0.2619635,-0.108112 -0.094251,-0.108805 -0.094251,-0.299387 0,-0.191275 0.094251,-0.2993871 Q 9.8019573,9.800831 9.9689763,9.800831 Z m 0.096331,-0.3402753 h 0.137912 L 9.9772926,9.7211331 H 9.8712598 Z"
             style="stroke-width:0.1;stroke-miterlimit:4;stroke-dasharray:none"
             id="path844"
             inkscape:connector-curvature="0" />
          <path
             d="m 11.181078,10.127246 v 0.468485 h -0.127517 v -0.464327 q 0,-0.110191 -0.04297,-0.16494 -0.04297,-0.054749 -0.128903,-0.054749 -0.103261,0 -0.162861,0.065837 -0.0596,0.065838 -0.0596,0.179494 v 0.438685 H 10.53102 V 9.8195427 h 0.12821 v 0.1205864 q 0.04574,-0.069996 0.107419,-0.1046468 0.06237,-0.034651 0.143456,-0.034651 0.133754,0 0.202363,0.083163 0.06861,0.08247 0.06861,0.2432517 z"
             style="stroke-width:0.1;stroke-miterlimit:4;stroke-dasharray:none"
             id="path846"
             inkscape:connector-curvature="0" />
        </g>
      </g>
      <g
         aria-label="+"
         style="font-style:normal;font-weight:normal;font-size:8.65721703px;line-height:1.25;font-family:sans-serif;letter-spacing:0px;word-spacing:0px;fill:#000000;fill-opacity:1;stroke:none;stroke-width:0.15617421"
         id="text886">
        <path
           d="M 4.6821094,3.1101538 6.3470109,4.7750553 8.0119124,3.1101538 8.5200511,3.6182924 6.8551496,5.2831939 8.5200511,6.9480955 8.0178905,7.450256 6.352989,5.7853545 4.6880875,7.450256 4.1799488,6.9421174 5.8448503,5.2772159 4.1799488,3.6123143 Z"
           style="stroke-width:0.15617421"
           id="path897"
           inkscape:connector-curvature="0" />
      </g>
    </g>
  </g>
</svg>
