<?xml version="1.0" encoding="UTF-8" standalone="no"?>
<!-- Created with Inkscape (http://www.inkscape.org/) -->

<svg
   xmlns:dc="http://purl.org/dc/elements/1.1/"
   xmlns:cc="http://creativecommons.org/ns#"
   xmlns:rdf="http://www.w3.org/1999/02/22-rdf-syntax-ns#"
   xmlns:svg="http://www.w3.org/2000/svg"
   xmlns="http://www.w3.org/2000/svg"
   xmlns:sodipodi="http://sodipodi.sourceforge.net/DTD/sodipodi-0.dtd"
   xmlns:inkscape="http://www.inkscape.org/namespaces/inkscape"
   width="48"
   height="48"
   viewBox="0 0 12.7 12.7"
   version="1.1"
   id="svg827"
   inkscape:version="0.92.4 (5da689c313, 2019-01-14)"
   sodipodi:docname="neq.svg">
  <defs
     id="defs821" />
  <sodipodi:namedview
     id="base"
     pagecolor="#ffffff"
     bordercolor="#666666"
     borderopacity="1.0"
     inkscape:pageopacity="0.0"
     inkscape:pageshadow="2"
     inkscape:zoom="11.2"
     inkscape:cx="24.702872"
     inkscape:cy="22.563348"
     inkscape:document-units="mm"
     inkscape:current-layer="text845"
     showgrid="false"
     units="px"
     inkscape:window-width="1366"
     inkscape:window-height="745"
     inkscape:window-x="-8"
     inkscape:window-y="-8"
     inkscape:window-maximized="1"
     inkscape:pagecheckerboard="true" />
  <metadata
     id="metadata824">
    <rdf:RDF>
      <cc:Work
         rdf:about="">
        <dc:format>image/svg+xml</dc:format>
        <dc:type
           rdf:resource="http://purl.org/dc/dcmitype/StillImage" />
        <dc:title></dc:title>
      </cc:Work>
    </rdf:RDF>
  </metadata>
  <g
     inkscape:label="Capa 1"
     inkscape:groupmode="layer"
     id="layer1"
     transform="translate(0,-284.3)" />
  <g
     inkscape:groupmode="layer"
     id="layer2"
     inkscape:label="Capa 2">
    <rect
       style="opacity:1;fill:none;fill-opacity:1;stroke:#000000;stroke-width:0.28099999;stroke-miterlimit:4;stroke-dasharray:none;stroke-dashoffset:0;stroke-opacity:1"
       id="rect1372"
       width="11.1755"
       height="11.1755"
       x="0.76225007"
       y="0.76225585" />
    <g
       aria-label="Micrófono"
       style="font-style:normal;font-weight:normal;font-size:2.11666656px;line-height:1.25;font-family:sans-serif;letter-spacing:0px;word-spacing:0px;fill:#000000;fill-opacity:1;stroke:none;stroke-width:0.26458332"
       id="text1080">
      <g
         aria-label="f(n±k)"
         style="font-style:normal;font-weight:normal;font-size:3.22482324px;line-height:1.25;font-family:sans-serif;letter-spacing:0px;word-spacing:0px;fill:#000000;fill-opacity:1;stroke:none;stroke-width:0.05817507"
         id="text845">
        <g
           id="g845"
           transform="translate(-1.3229166)">
          <path
             inkscape:connector-curvature="0"
             id="path880"
             style="stroke-width:0.05817507"
             d="m 5.1584828,4.0555054 v 0.240917 H 4.8813495 q -0.1558874,0 -0.2172976,0.062985 -0.059836,0.062985 -0.059836,0.2267454 V 4.74204 H 5.0813264 V 4.9672108 H 4.6042163 V 6.5056152 H 4.3129114 V 4.9672108 H 4.0357782 V 4.74204 H 4.3129114 V 4.6192196 q 0,-0.2944541 0.136992,-0.4282968 0.136992,-0.1354174 0.4345954,-0.1354174 z" />
          <path
             inkscape:connector-curvature="0"
             id="path882"
             style="stroke-width:0.05817507"
             d="M 6.0953821,4.0586546 Q 5.884383,4.4208174 5.7820326,4.7751071 5.6796823,5.1293967 5.6796823,5.4931341 q 0,0.3637374 0.1023503,0.7211763 0.103925,0.3558643 0.3133495,0.7164524 H 5.8434428 Q 5.6072497,6.560727 5.4891532,6.2032881 5.3726312,5.8458492 5.3726312,5.4931341 q 0,-0.3511404 0.116522,-0.7070047 0.1165219,-0.3558643 0.3542896,-0.7274748 z" />
          <path
             inkscape:connector-curvature="0"
             id="path884"
             style="stroke-width:0.05817507"
             d="M 10.241735,5.4411716 V 6.5056152 H 9.9520049 V 5.4506194 q 0,-0.2503647 -0.097627,-0.3747598 -0.097626,-0.124395 -0.2928795,-0.124395 -0.2346185,0 -0.3700359,0.149589 Q 9.0560457,5.2506425 9.0560457,5.5088803 V 6.5056152 H 8.7647408 V 4.74204 h 0.2913049 v 0.273984 q 0.1039249,-0.1590367 0.2440662,-0.2377677 0.1417158,-0.078731 0.3259465,-0.078731 0.3039018,0 0.4597896,0.1889545 0.155887,0.1873798 0.155887,0.5526918 z" />
          <path
             sodipodi:nodetypes="ccccc"
             inkscape:connector-curvature="0"
             id="path886"
             style="stroke-width:0.05817507"
             d="M 6.0980609,5.2793145 H 8.1167246 V 5.547 H 6.0980609 Z" />
          <path
             id="path890"
             style="stroke-width:0.05817507"
             d="m 10.587305,4.0586546 h 0.251939 q 0.236193,0.3716105 0.352715,0.7274748 0.118096,0.3558643 0.118096,0.7070047 0,0.3527151 -0.118096,0.710154 -0.116522,0.3574389 -0.352715,0.7274747 h -0.251939 q 0.209424,-0.3605881 0.311774,-0.7164524 0.103925,-0.3574389 0.103925,-0.7211763 0,-0.3637374 -0.103925,-0.718027 -0.10235,-0.3542897 -0.311774,-0.7164525 z"
             inkscape:connector-curvature="0" />
        </g>
      </g>
      <g
         aria-label="desplazamiento"
         style="font-style:normal;font-weight:normal;font-size:1.3605088px;line-height:1.25;font-family:sans-serif;letter-spacing:0px;word-spacing:0px;fill:#000000;fill-opacity:1;stroke:none;stroke-width:0.02454327"
         id="text849">
        <path
           d="M 1.5649681,10.237781 V 9.8352086 H 1.6872013 V 10.868876 H 1.5649681 v -0.111604 q -0.03853,0.06643 -0.097654,0.09898 -0.058459,0.03189 -0.1408339,0.03189 -0.1348551,0 -0.2198869,-0.107618 -0.084368,-0.107618 -0.084368,-0.282996 0,-0.175378 0.084368,-0.282997 0.085032,-0.107618 0.2198869,-0.107618 0.082375,0 0.1408339,0.03255 0.059124,0.03189 0.097654,0.09832 z m -0.416523,0.259746 q 0,0.134855 0.055138,0.211915 0.055802,0.0764 0.1527915,0.0764 0.096989,0 0.1527915,-0.0764 0.055802,-0.07706 0.055802,-0.211915 0,-0.134855 -0.055802,-0.211251 -0.055802,-0.07706 -0.1527915,-0.07706 -0.096989,0 -0.1527915,0.07706 -0.055138,0.0764 -0.055138,0.211251 z"
           style="stroke-width:0.02454327"
           id="path851" />
        <path
           d="m 2.5753851,10.466304 v 0.05979 H 2.013378 q 0.00797,0.126219 0.075732,0.19265 0.068424,0.06577 0.1899929,0.06577 0.070417,0 0.1361837,-0.01727 0.066431,-0.01727 0.1315336,-0.05182 v 0.11559 q -0.065767,0.0279 -0.1348551,0.04252 -0.069088,0.01461 -0.1401696,0.01461 -0.1780354,0 -0.2823322,-0.103632 -0.1036325,-0.103633 -0.1036325,-0.280339 0,-0.182686 0.098318,-0.28964 0.098982,-0.107618 0.2663887,-0.107618 0.1501343,0 0.237159,0.09699 0.087689,0.09633 0.087689,0.262403 z m -0.1222332,-0.03587 q -0.00133,-0.100311 -0.056466,-0.160099 -0.054473,-0.05979 -0.1448198,-0.05979 -0.1023038,0 -0.1640848,0.05779 -0.061117,0.0578 -0.070417,0.162757 z"
           style="stroke-width:0.02454327"
           id="path853" />
        <path
           d="m 3.250325,10.14677 v 0.115591 q -0.051816,-0.02657 -0.1076184,-0.03986 -0.055802,-0.01329 -0.1155901,-0.01329 -0.091011,0 -0.136848,0.0279 -0.045173,0.0279 -0.045173,0.0837 0,0.04252 0.032551,0.0671 0.032551,0.02392 0.1308693,0.04584 l 0.041852,0.0093 q 0.1302049,0.0279 0.1846784,0.07905 0.055138,0.05049 0.055138,0.141498 0,0.103633 -0.082375,0.164085 -0.08171,0.06045 -0.2252014,0.06045 -0.059788,0 -0.1248905,-0.01196 -0.064438,-0.01129 -0.1361837,-0.03454 v -0.126219 q 0.06776,0.03521 0.1335265,0.05315 0.065767,0.01727 0.1302049,0.01727 0.08636,0 0.1328622,-0.02923 0.046502,-0.02989 0.046502,-0.0837 0,-0.04982 -0.03388,-0.0764 -0.033215,-0.02657 -0.1468127,-0.05115 l -0.042516,-0.01 q -0.1135972,-0.02392 -0.1640848,-0.07307 -0.050488,-0.04982 -0.050488,-0.136184 0,-0.104961 0.074403,-0.162091 0.074403,-0.05713 0.2112509,-0.05713 0.06776,0 0.1275477,0.01 0.059788,0.01 0.1102756,0.02989 z"
           style="stroke-width:0.02454327"
           id="path855" />
        <path
           d="m 3.6037383,10.757272 v 0.394601 H 3.4808408 v -1.027025 h 0.1228975 v 0.112933 q 0.03853,-0.06643 0.096989,-0.09832 0.059124,-0.03255 0.1408339,-0.03255 0.1355194,0 0.2198869,0.107618 0.085032,0.107619 0.085032,0.282997 0,0.175378 -0.085032,0.282996 -0.084367,0.107618 -0.2198869,0.107618 -0.08171,0 -0.1408339,-0.03189 -0.058459,-0.03255 -0.096989,-0.09898 z m 0.4158586,-0.259745 q 0,-0.134855 -0.055802,-0.211251 -0.055138,-0.07706 -0.1521272,-0.07706 -0.096989,0 -0.1527915,0.07706 -0.055138,0.0764 -0.055138,0.211251 0,0.134855 0.055138,0.211915 0.055802,0.0764 0.1527915,0.0764 0.096989,0 0.1521272,-0.0764 0.055802,-0.07706 0.055802,-0.211915 z"
           style="stroke-width:0.02454327"
           id="path857" />
        <path
           d="M 4.3490953,9.8352086 H 4.4713285 V 10.868876 H 4.3490953 Z"
           style="stroke-width:0.02454327"
           id="path859" />
        <path
           d="m 5.0645582,10.494869 q -0.1481414,0 -0.2052721,0.03388 -0.057131,0.03388 -0.057131,0.11559 0,0.0651 0.042516,0.103633 0.04318,0.03787 0.1169188,0.03787 0.1016395,0 0.1627561,-0.07175 0.061781,-0.07241 0.061781,-0.191986 v -0.02724 z m 0.2438021,-0.05049 v 0.424494 H 5.1861271 v -0.112932 q -0.041852,0.06776 -0.1042969,0.100311 -0.062445,0.03189 -0.1527915,0.03189 -0.1142614,0 -0.1820212,-0.06377 -0.067095,-0.06444 -0.067095,-0.172057 0,-0.125555 0.083703,-0.189329 0.084367,-0.06377 0.2511095,-0.06377 h 0.1713923 v -0.01196 q 0,-0.08437 -0.055802,-0.130205 -0.055138,-0.0465 -0.1554487,-0.0465 -0.063774,0 -0.1242262,0.01528 -0.060452,0.01528 -0.1162544,0.04584 v -0.112933 q 0.067095,-0.02591 0.130205,-0.03853 0.063109,-0.01329 0.1228975,-0.01329 0.1614276,0 0.2411449,0.0837 0.079717,0.0837 0.079717,0.253767 z"
           style="stroke-width:0.02454327"
           id="path861" />
        <path
           d="m 5.5076534,10.124848 h 0.5806078 v 0.111604 L 5.628558,10.771223 h 0.4597032 v 0.09765 H 5.4910457 v -0.111604 l 0.4597031,-0.53477 H 5.5076534 Z"
           style="stroke-width:0.02454327"
           id="path863" />
        <path
           d="m 6.6137315,10.494869 q -0.1481413,0 -0.2052721,0.03388 -0.057131,0.03388 -0.057131,0.11559 0,0.0651 0.042516,0.103633 0.04318,0.03787 0.1169187,0.03787 0.1016396,0 0.1627562,-0.07175 0.061781,-0.07241 0.061781,-0.191986 v -0.02724 z m 0.2438021,-0.05049 v 0.424494 H 6.7353004 v -0.112932 q -0.041852,0.06776 -0.1042968,0.100311 -0.062445,0.03189 -0.1527915,0.03189 -0.1142615,0 -0.1820212,-0.06377 -0.067095,-0.06444 -0.067095,-0.172057 0,-0.125555 0.083703,-0.189329 0.084367,-0.06377 0.2511095,-0.06377 h 0.1713922 v -0.01196 q 0,-0.08437 -0.055802,-0.130205 -0.055138,-0.0465 -0.1554488,-0.0465 -0.063774,0 -0.1242261,0.01528 -0.060452,0.01528 -0.1162544,0.04584 v -0.112933 q 0.067095,-0.02591 0.1302049,-0.03853 0.06311,-0.01329 0.1228975,-0.01329 0.1614276,0 0.2411449,0.0837 0.079717,0.0837 0.079717,0.253767 z"
           style="stroke-width:0.02454327"
           id="path865" />
        <path
           d="m 7.6892508,10.267675 q 0.045838,-0.08237 0.1096113,-0.121569 0.063774,-0.03919 0.1501343,-0.03919 0.1162544,0 0.1793639,0.08171 0.06311,0.08105 0.06311,0.23118 v 0.449074 H 8.0685724 v -0.445088 q 0,-0.106954 -0.037866,-0.15877 -0.037866,-0.05182 -0.1155901,-0.05182 -0.094996,0 -0.1501342,0.06311 -0.055138,0.06311 -0.055138,0.172057 v 0.420508 H 7.5869469 v -0.445088 q 0,-0.107618 -0.037866,-0.15877 -0.037866,-0.05182 -0.1169187,-0.05182 -0.093668,0 -0.1488057,0.06377 -0.055138,0.06311 -0.055138,0.171393 v 0.420508 H 7.1053215 V 10.124848 H 7.228219 v 0.11559 q 0.041852,-0.06842 0.100311,-0.100975 0.058459,-0.03255 0.138841,-0.03255 0.081046,0 0.1375123,0.04119 0.057131,0.04119 0.084367,0.119576 z"
           style="stroke-width:0.02454327"
           id="path867" />
        <path
           d="m 8.4359361,10.124848 h 0.1222332 v 0.744028 H 8.4359361 Z m 0,-0.2896394 H 8.5581693 V 9.9899931 H 8.4359361 Z"
           style="stroke-width:0.02454327"
           id="path869" />
        <path
           d="m 9.4496749,10.466304 v 0.05979 H 8.8876678 q 0.00797,0.126219 0.075732,0.19265 0.068424,0.06577 0.1899929,0.06577 0.070417,0 0.1361837,-0.01727 0.066431,-0.01727 0.1315336,-0.05182 v 0.11559 q -0.065767,0.0279 -0.1348551,0.04252 -0.069088,0.01461 -0.1401696,0.01461 -0.1780353,0 -0.2823322,-0.103632 -0.1036325,-0.103633 -0.1036325,-0.280339 0,-0.182686 0.098318,-0.28964 0.098982,-0.107618 0.2663887,-0.107618 0.1501343,0 0.237159,0.09699 0.087689,0.09633 0.087689,0.262403 z m -0.1222332,-0.03587 q -0.00133,-0.100311 -0.056466,-0.160099 -0.054474,-0.05979 -0.1448197,-0.05979 -0.1023039,0 -0.1640848,0.05779 -0.061117,0.0578 -0.070417,0.162757 z"
           style="stroke-width:0.02454327"
           id="path871" />
        <path
           d="m 10.26877,10.419802 v 0.449074 h -0.122233 v -0.445088 q 0,-0.105625 -0.04119,-0.158106 -0.04119,-0.05248 -0.1235615,-0.05248 -0.098982,0 -0.156113,0.06311 -0.057131,0.06311 -0.057131,0.172057 v 0.420508 H 9.6456462 v -0.744028 h 0.1228975 v 0.11559 q 0.043844,-0.0671 0.1029682,-0.100311 0.059788,-0.03322 0.1375121,-0.03322 0.128212,0 0.193979,0.07972 0.06577,0.07905 0.06577,0.233173 z"
           style="stroke-width:0.02454327"
           id="path873" />
        <path
           d="m 10.634806,9.9135973 v 0.2112507 h 0.251773 v 0.095 h -0.251773 v 0.403901 q 0,0.09101 0.02458,0.116918 0.02524,0.02591 0.10164,0.02591 h 0.125554 v 0.102303 h -0.125554 q -0.141499,0 -0.195308,-0.05248 -0.05381,-0.05314 -0.05381,-0.19265 v -0.403901 h -0.08968 v -0.095 h 0.08968 V 9.9135973 Z"
           style="stroke-width:0.02454327"
           id="path875" />
        <path
           d="m 11.336318,10.210544 q -0.09832,0 -0.155449,0.07706 -0.05713,0.0764 -0.05713,0.209923 0,0.133526 0.05647,0.210586 0.05713,0.0764 0.156113,0.0764 0.09765,0 0.154785,-0.07706 0.05713,-0.07706 0.05713,-0.209922 0,-0.132198 -0.05713,-0.209258 -0.05713,-0.07772 -0.154785,-0.07772 z m 0,-0.103632 q 0.159435,0 0.250445,0.103632 0.09101,0.103633 0.09101,0.286983 0,0.182685 -0.09101,0.286982 -0.09101,0.103632 -0.250445,0.103632 -0.160099,0 -0.251109,-0.103632 -0.09035,-0.104297 -0.09035,-0.286982 0,-0.18335 0.09035,-0.286983 0.09101,-0.103632 0.251109,-0.103632 z"
           style="stroke-width:0.02454327"
           id="path877" />
      </g>
    </g>
  </g>
</svg>
