<?xml version="1.0" encoding="UTF-8" standalone="no"?>
<!-- Created with Inkscape (http://www.inkscape.org/) -->

<svg
   xmlns:dc="http://purl.org/dc/elements/1.1/"
   xmlns:cc="http://creativecommons.org/ns#"
   xmlns:rdf="http://www.w3.org/1999/02/22-rdf-syntax-ns#"
   xmlns:svg="http://www.w3.org/2000/svg"
   xmlns="http://www.w3.org/2000/svg"
   xmlns:sodipodi="http://sodipodi.sourceforge.net/DTD/sodipodi-0.dtd"
   xmlns:inkscape="http://www.inkscape.org/namespaces/inkscape"
   width="48"
   height="48"
   viewBox="0 0 12.7 12.7"
   version="1.1"
   id="svg827"
   inkscape:version="0.92.3 (2405546, 2018-03-11)"
   sodipodi:docname="suma.svg">
  <defs
     id="defs821" />
  <sodipodi:namedview
     id="base"
     pagecolor="#ffffff"
     bordercolor="#666666"
     borderopacity="1.0"
     inkscape:pageopacity="0.0"
     inkscape:pageshadow="2"
     inkscape:zoom="15.839192"
     inkscape:cx="9.0905043"
     inkscape:cy="23.998734"
     inkscape:document-units="mm"
     inkscape:current-layer="text886"
     showgrid="false"
     units="px"
     inkscape:window-width="1920"
     inkscape:window-height="1057"
     inkscape:window-x="-8"
     inkscape:window-y="-8"
     inkscape:window-maximized="1"
     inkscape:pagecheckerboard="true" />
  <metadata
     id="metadata824">
    <rdf:RDF>
      <cc:Work
         rdf:about="">
        <dc:format>image/svg+xml</dc:format>
        <dc:type
           rdf:resource="http://purl.org/dc/dcmitype/StillImage" />
        <dc:title />
      </cc:Work>
    </rdf:RDF>
  </metadata>
  <g
     inkscape:label="Capa 1"
     inkscape:groupmode="layer"
     id="layer1"
     transform="translate(0,-284.3)" />
  <g
     inkscape:groupmode="layer"
     id="layer2"
     inkscape:label="Capa 2">
    <rect
       style="opacity:1;fill:none;fill-opacity:1;stroke:#000000;stroke-width:0.28099999;stroke-miterlimit:4;stroke-dasharray:none;stroke-dashoffset:0;stroke-opacity:1"
       id="rect1372"
       width="11.1755"
       height="11.1755"
       x="0.76225007"
       y="0.76225585" />
    <g
       aria-label="Micrófono"
       style="font-style:normal;font-weight:normal;font-size:2.11666656px;line-height:1.25;font-family:sans-serif;letter-spacing:0px;word-spacing:0px;fill:#000000;fill-opacity:1;stroke:none;stroke-width:0.26458332"
       id="text1080">
      <g
         aria-label="suma"
         style="font-style:normal;font-weight:normal;font-size:3.88055563px;line-height:1.25;font-family:sans-serif;letter-spacing:0px;word-spacing:0px;fill:#000000;fill-opacity:1;stroke:none;stroke-width:0.07000434"
         id="text882">
        <path
           d="M 2.8161934,9.33741 V 9.6671057 Q 2.6683988,9.5913136 2.5092354,9.5534175 2.350072,9.5155215 2.1795398,9.5155215 q -0.259588,0 -0.3903294,0.079582 -0.1288465,0.079582 -0.1288465,0.2387451 0,0.1212674 0.092845,0.1913747 0.092845,0.06821 0.3732761,0.130742 l 0.1193725,0.02653 q 0.3713813,0.07958 0.5267552,0.225481 0.1572686,0.144005 0.1572686,0.403593 0,0.29559 -0.2349556,0.468017 -0.2330607,0.172427 -0.642338,0.172427 -0.1705322,0 -0.3562229,-0.03411 -0.1837958,-0.03221 -0.3884345,-0.09853 v -0.360012 q 0.1932698,0.100425 0.3808553,0.151584 0.1875854,0.04927 0.3713813,0.04927 0.2463243,0 0.3789605,-0.08337 0.1326362,-0.08527 0.1326362,-0.238745 0,-0.142111 -0.096635,-0.217903 -0.09474,-0.07579 -0.4187513,-0.145899 L 1.9351102,10.44587 Q 1.611099,10.377657 1.467094,10.237441 1.323089,10.095331 1.323089,9.8490067 q 0,-0.2993788 0.2122179,-0.4623318 0.2122179,-0.162953 0.6025472,-0.162953 0.1932699,0 0.3638021,0.028422 0.1705322,0.028422 0.3145372,0.085266 z"
           style="stroke-width:0.07000434"
           id="path888" />
        <path
           d="M 3.4509524,10.559558 V 9.2748815 H 3.799596 v 1.2714125 q 0,0.301274 0.1174778,0.452858 0.1174777,0.149689 0.3524333,0.149689 0.2823255,0 0.4452786,-0.180006 0.1648478,-0.180006 0.1648478,-0.490754 V 9.2748815 H 5.2282771 V 11.39706 H 4.8796335 v -0.325906 q -0.1269518,0.19327 -0.2955892,0.28801 -0.1667426,0.09285 -0.3884345,0.09285 -0.3656969,0 -0.5551772,-0.227377 Q 3.4509524,10.997257 3.4509524,10.559558 Z M 4.3282459,9.2237219 Z"
           style="stroke-width:0.07000434"
           id="path890" />
        <path
           d="M 7.6024649,9.6822641 Q 7.7332063,9.4473086 7.9151073,9.3355152 8.0970084,9.2237219 8.3433327,9.2237219 q 0.3315905,0 0.5115967,0.2330607 0.1800062,0.2311659 0.1800062,0.6593914 V 11.39706 H 8.6843972 v -1.269517 q 0,-0.3050635 -0.1080038,-0.4528581 -0.1080037,-0.1477946 -0.3296956,-0.1477946 -0.2709568,0 -0.4282254,0.1800062 Q 7.6612038,9.8869028 7.6612038,10.19765 v 1.19941 H 7.3106653 v -1.269517 q 0,-0.3069583 -0.1080037,-0.4528581 -0.1080038,-0.1477946 -0.3334853,-0.1477946 -0.2671671,0 -0.4244357,0.181901 Q 6.2874719,9.8887976 6.2874719,10.19765 v 1.19941 H 5.9369335 V 9.2748815 h 0.3505384 v 0.3296957 q 0.1193726,-0.1951647 0.2861152,-0.28801 0.1667427,-0.092845 0.3960138,-0.092845 0.2311659,0 0.3922241,0.1174777 0.162953,0.1174778 0.2406399,0.3410645 z"
           style="stroke-width:0.07000434"
           id="path892" />
        <path
           d="m 10.696677,10.330287 q -0.422541,0 -0.585494,0.09663 -0.1629531,0.09663 -0.1629531,0.329696 0,0.185691 0.1212671,0.295589 0.123162,0.108004 0.333486,0.108004 0.289904,0 0.464226,-0.204639 0.176217,-0.206533 0.176217,-0.547598 v -0.07769 z m 0.695392,-0.144005 v 1.210778 h -0.348643 v -0.322116 q -0.119373,0.19327 -0.297484,0.286115 -0.178112,0.09095 -0.435805,0.09095 -0.3259058,0 -0.5191757,-0.181901 -0.1913751,-0.183796 -0.1913751,-0.490754 0,-0.358118 0.2387452,-0.540019 0.2406396,-0.181901 0.7162356,-0.181901 h 0.488859 v -0.03411 q 0,-0.2406404 -0.159164,-0.3713818 -0.157268,-0.1326361 -0.443383,-0.1326361 -0.181901,0 -0.354328,0.04358 Q 9.9141235,9.606472 9.7549601,9.6936329 V 9.3715165 q 0.191375,-0.073897 0.3713809,-0.1098986 0.180007,-0.037896 0.350539,-0.037896 0.460437,0 0.687813,0.2387451 0.227376,0.2387451 0.227376,0.723815 z"
           style="stroke-width:0.07000434"
           id="path894" />
      </g>
      <g
         aria-label="+"
         style="font-style:normal;font-weight:normal;font-size:8.65721703px;line-height:1.25;font-family:sans-serif;letter-spacing:0px;word-spacing:0px;fill:#000000;fill-opacity:1;stroke:none;stroke-width:0.15617421"
         id="text886">
        <path
           d="M 6.7050811,2.5663703 V 4.9208966 H 9.0596074 V 5.6395132 H 6.7050811 V 7.9940395 H 5.9949188 V 5.6395132 H 3.6403925 V 4.9208966 H 5.9949188 V 2.5663703 Z"
           style="stroke-width:0.15617421"
           id="path897" />
      </g>
    </g>
  </g>
</svg>
